<?xml version="1.0" encoding="utf-8"?>
<!-- Generator: Adobe Illustrator 16.0.3, SVG Export Plug-In . SVG Version: 6.00 Build 0)  -->
<!DOCTYPE svg PUBLIC "-//W3C//DTD SVG 1.1//EN" "http://www.w3.org/Graphics/SVG/1.1/DTD/svg11.dtd">
<svg version="1.1" id="Layer_1" xmlns="http://www.w3.org/2000/svg" xmlns:xlink="http://www.w3.org/1999/xlink" x="0px" y="0px"
	 width="20px" height="20px" viewBox="0 0 20 20" enable-background="new 0 0 20 20" xml:space="preserve">
<g>
	<path fill="#303841" d="M9.995,1C6.356,1,3.399,3.963,3.399,7.604c0,3.022,2.021,5.628,4.935,6.376l1.38,4.803
		C9.749,18.918,9.864,19,9.995,19c0.132,0,0.251-0.082,0.285-0.217l1.381-4.803c2.918-0.748,4.939-3.354,4.939-6.376
		C16.601,3.963,13.638,1,9.995,1z M9.995,12.102c-2.484,0-4.498-2.018-4.498-4.497c0-2.485,2.014-4.5,4.498-4.5
		c2.488,0,4.5,2.015,4.5,4.5C14.495,10.084,12.483,12.102,9.995,12.102z"/>
	<path fill="#bbcf4c" d="M14.499,7.604c0,2.479-2.012,4.497-4.5,4.497c-2.484,0-4.498-2.018-4.498-4.497
		c0-2.485,2.014-4.5,4.498-4.5C12.487,3.104,14.499,5.119,14.499,7.604z"/>
</g>
</svg>

