<?xml version="1.0" encoding="utf-8"?>
<!-- Generator: Adobe Illustrator 16.0.3, SVG Export Plug-In . SVG Version: 6.00 Build 0)  -->
<!DOCTYPE svg PUBLIC "-//W3C//DTD SVG 1.1//EN" "http://www.w3.org/Graphics/SVG/1.1/DTD/svg11.dtd">
<svg version="1.1" id="Layer_1" xmlns="http://www.w3.org/2000/svg" xmlns:xlink="http://www.w3.org/1999/xlink" x="0px" y="0px"
	 width="1002.637px" height="1003.12px" viewBox="0 0 1002.637 1003.12" enable-background="new 0 0 1002.637 1003.12"
	 xml:space="preserve">
<g>
	<g>
		<path fill="#58595B" d="M131.09,649.819c33.836,0,59.26,5.59,76.24,16.771c16.982,11.182,25.498,28.818,25.498,52.92
			c0,24.246-8.482,41.951-25.389,53.133c-16.922,11.18-42.369,16.762-76.35,16.762c-34.111,0-59.609-5.582-76.461-16.762
			c-16.852-11.182-25.279-28.887-25.279-53.133c0-24.102,8.445-41.738,25.389-52.92C71.666,655.409,97.092,649.819,131.09,649.819z
			 M131.09,754.265c10.818,0,19.965-0.445,27.447-1.328c7.508-0.857,13.561-2.588,18.219-5.145
			c4.648-2.564,8.002-6.086,10.078-10.602c2.078-4.514,3.129-10.398,3.129-17.68c0-7.271-1.051-13.156-3.129-17.67
			c-2.076-4.516-5.43-8.012-10.078-10.5c-4.658-2.506-10.711-4.17-18.219-5.061c-7.482-0.875-16.629-1.305-27.447-1.305
			c-10.82,0-19.984,0.43-27.486,1.305c-7.471,0.891-13.539,2.555-18.176,5.061c-4.658,2.488-8.025,5.984-10.102,10.5
			c-2.08,4.514-3.127,10.398-3.127,17.67c0,7.281,1.047,13.166,3.127,17.68c2.076,4.516,5.443,8.037,10.102,10.602
			c4.637,2.557,10.705,4.287,18.176,5.145C111.105,753.819,120.27,754.265,131.09,754.265z"/>
		<path fill="#58595B" d="M298.359,789.019h-43.068V649.819h43.068V789.019z"/>
		<path fill="#58595B" d="M497.408,789.019H339.537c-5.389,0-10.08-1.496-14.039-4.48c-3.936-2.984-5.92-7.314-5.92-13.006
			c0-3.193,0.824-6.271,2.498-9.256c1.656-2.992,3.941-5.656,6.842-8.012l50.777-39.939c5.818-4.582,10.82-8.508,14.998-11.754
			c4.137-3.262,7.744-6.035,10.82-8.33c3.035-2.295,5.574-4.129,7.574-5.508c2.027-1.379,3.666-2.572,4.918-3.547
			c-1.967,0.135-4.211,0.285-6.775,0.42c-2.572,0.143-5.775,0.244-9.584,0.303c-3.824,0.084-8.297,0.117-13.408,0.117
			c-5.137,0-11.174,0-18.109,0h-41.445l-0.092-36.207h141.621c5.414,0,10.088,1.488,14.039,4.473c3.959,3,5.928,7.322,5.928,13.004
			c0,3.203-0.85,6.289-2.488,9.256c-1.674,3.002-3.951,5.592-6.877,7.795l-51.383,40.797c-5.691,4.574-10.619,8.457-14.779,11.635
			c-4.154,3.213-7.742,5.953-10.703,8.23c-3,2.279-5.447,4.121-7.381,5.508c-1.967,1.395-3.623,2.572-5.002,3.547
			c1.656-0.135,4.473-0.244,8.424-0.318c3.959-0.068,8.5-0.145,13.637-0.203c5.111-0.084,10.592-0.143,16.426-0.219
			c5.818-0.066,11.441-0.092,16.855-0.092h50.535L497.408,789.019z"/>
		<path fill="#58595B" d="M609.582,649.819c33.871,0,59.275,5.59,76.275,16.771c16.98,11.182,25.48,28.818,25.48,52.92
			c0,24.246-8.467,41.951-25.389,53.133c-16.924,11.18-42.354,16.762-76.367,16.762c-34.115,0-59.572-5.582-76.443-16.762
			c-16.857-11.182-25.264-28.887-25.264-53.133c0-24.102,8.449-41.738,25.373-52.92C550.17,655.409,575.617,649.819,609.582,649.819
			z M609.582,754.265c10.836,0,20-0.445,27.48-1.328c7.492-0.857,13.561-2.588,18.201-5.145c4.648-2.564,8.02-6.086,10.098-10.602
			c2.059-4.514,3.127-10.398,3.127-17.68c0-7.271-1.068-13.156-3.127-17.67c-2.078-4.516-5.449-8.012-10.098-10.5
			c-4.641-2.506-10.709-4.17-18.201-5.061c-7.48-0.875-16.645-1.305-27.48-1.305c-10.803,0-19.941,0.43-27.449,1.305
			c-7.49,0.891-13.561,2.555-18.201,5.061c-4.648,2.488-8.02,5.984-10.08,10.5c-2.076,4.514-3.143,10.398-3.143,17.67
			c0,7.281,1.066,13.166,3.143,17.68c2.061,4.516,5.432,8.037,10.08,10.602c4.641,2.557,10.711,4.287,18.201,5.145
			C589.641,753.819,598.779,754.265,609.582,754.265z"/>
		<path fill="#58595B" d="M823.291,703.093c3.035,5.322,5.701,9.996,8.004,14.014c2.277,4.027,4.305,7.609,6.027,10.736
			c1.715,3.152,3.246,6.012,4.582,8.6c1.313,2.598,2.598,5.129,3.85,7.574c1.102-2.445,2.32-4.941,3.625-7.473
			c1.318-2.521,2.832-5.389,4.58-8.592c1.732-3.195,3.75-6.785,6.037-10.736c2.277-3.967,4.969-8.592,8.02-13.922l22.262-38.889
			c2.48-4.373,5.65-7.869,9.457-10.543c3.826-2.656,8.566-3.984,14.234-3.984c5.414,0,10.307,1.529,14.686,4.59
			c4.381,3.076,7.508,7.826,9.459,14.225l35.174,120.361H930.42l-13.098-47.701c-2.229-7.768-4.104-14.594-5.615-20.463
			c-1.521-5.859-2.867-11.592-3.951-17.191c-2.379,4.791-5.002,10.072-7.928,15.855c-2.91,5.809-6.717,13.148-11.426,22.018
			l-18.746,32.08c-1.791,3.43-3.633,6.111-5.49,8.088c-1.893,1.984-3.809,3.514-5.717,4.607c-1.967,1.092-4.053,1.807-6.254,2.15
			c-2.229,0.338-4.658,0.521-7.289,0.521c-2.633,0-5.061-0.184-7.289-0.521c-2.203-0.344-4.279-1.059-6.213-2.15
			c-1.967-1.094-3.867-2.623-5.742-4.607c-1.875-1.977-3.699-4.658-5.523-8.088l-18.721-32.299
			c-2.49-4.641-4.717-8.793-6.643-12.477c-1.949-3.682-3.74-6.994-5.32-9.92c-1.582-2.941-2.977-5.641-4.154-8.096
			c-1.176-2.445-2.32-4.842-3.422-7.162c-1.109,5.465-2.43,11.156-3.959,17.1c-1.529,5.928-3.33,12.787-5.406,20.555l-13.105,47.701
			h-42.254l36-120.361c1.934-6.398,5.135-11.148,9.592-14.225c4.43-3.061,9.34-4.59,14.736-4.59c5.574,0,10.24,1.303,14.049,3.883
			c3.832,2.59,6.994,6.139,9.5,10.645L823.291,703.093z"/>
	</g>
	<g>
		<path fill="#58595B" stroke="#58595B" stroke-width="4" stroke-miterlimit="10" d="M105.793,863.308v16.547h-2.65V841.88h9.041
			c4.709,0,8.189,0.869,10.441,2.611c2.25,1.738,3.377,4.357,3.377,7.855c0,2.547-0.672,4.693-2.014,6.441
			c-1.344,1.75-3.381,3.006-6.117,3.768l10.313,17.299h-3.17l-9.791-16.547H105.793z M105.793,861.022h7.246
			c3.203,0,5.689-0.715,7.455-2.143c1.766-1.43,2.65-3.537,2.65-6.324c0-2.893-0.867-4.996-2.598-6.313
			c-1.732-1.316-4.555-1.975-8.469-1.975h-6.285V861.022z"/>
		<path fill="#58595B" stroke="#58595B" stroke-width="4" stroke-miterlimit="10" d="M166.146,879.854h-20.754V841.88h20.754v2.441
			h-18.104v14.363h17.09v2.441h-17.09v16.285h18.104V879.854z"/>
		<path fill="#58595B" stroke="#58595B" stroke-width="4" stroke-miterlimit="10" d="M214.213,860.503
			c0,6.373-1.67,11.191-5.012,14.455s-8.25,4.896-14.727,4.896h-9.092V841.88h10.26c6.061,0,10.672,1.584,13.832,4.754
			C212.633,849.802,214.213,854.425,214.213,860.503z M211.332,860.606c0-5.438-1.383-9.527-4.145-12.271
			c-2.762-2.746-6.818-4.117-12.168-4.117h-6.986v33.299h6.285C205.66,877.517,211.332,871.88,211.332,860.606z"/>
		<path fill="#58595B" stroke="#58595B" stroke-width="4" stroke-miterlimit="10" d="M254.334,879.854H233.58V841.88h20.754v2.441
			H236.23v14.363h17.09v2.441h-17.09v16.285h18.104V879.854z"/>
		<path fill="#58595B" stroke="#58595B" stroke-width="4" stroke-miterlimit="10" d="M276.219,879.854h-2.648V841.88h20.805v2.441
			h-18.156v16.104h17.145v2.467h-17.145V879.854z"/>
		<path fill="#58595B" stroke="#58595B" stroke-width="4" stroke-miterlimit="10" d="M310.91,879.854V841.88h2.65v37.975H310.91z"/>
		<path fill="#58595B" stroke="#58595B" stroke-width="4" stroke-miterlimit="10" d="M362.563,879.854h-2.676l-22.494-33.715h-0.207
			c0.207,4.018,0.313,7.047,0.313,9.09v24.625h-2.547V841.88h2.65l22.467,33.662h0.156c-0.156-3.117-0.234-6.078-0.234-8.883V841.88
			h2.572V879.854z"/>
		<path fill="#58595B" stroke="#58595B" stroke-width="4" stroke-miterlimit="10" d="M383.955,879.854V841.88h2.648v37.975H383.955z
			"/>
		<path fill="#58595B" stroke="#58595B" stroke-width="4" stroke-miterlimit="10" d="M435.607,879.854h-2.676l-22.494-33.715h-0.207
			c0.207,4.018,0.311,7.047,0.311,9.09v24.625h-2.545V841.88h2.648l22.469,33.662h0.156c-0.156-3.117-0.234-6.078-0.234-8.883
			V841.88h2.572V879.854z"/>
		<path fill="#58595B" stroke="#58595B" stroke-width="4" stroke-miterlimit="10" d="M471.934,860.712h14v17.324
			c-3.672,1.559-7.801,2.338-12.389,2.338c-5.992,0-10.584-1.693-13.779-5.078c-3.195-3.387-4.793-8.178-4.793-14.377
			c0-3.861,0.793-7.285,2.377-10.273c1.584-2.986,3.854-5.293,6.805-6.922c2.953-1.627,6.342-2.441,10.17-2.441
			c4.139,0,7.852,0.762,11.143,2.285l-1.064,2.391c-3.291-1.523-6.703-2.287-10.234-2.287c-5.004,0-8.975,1.547-11.908,4.637
			c-2.936,3.092-4.404,7.26-4.404,12.508c0,5.715,1.395,10.012,4.182,12.896c2.789,2.883,6.885,4.324,12.287,4.324
			c3.496,0,6.467-0.494,8.908-1.48v-13.352h-11.299V860.712z"/>
		<path fill="#58595B" stroke="#58595B" stroke-width="4" stroke-miterlimit="10" d="M533.215,863.308v16.547h-2.65V841.88h9.039
			c4.709,0,8.189,0.869,10.441,2.611c2.25,1.738,3.377,4.357,3.377,7.855c0,2.547-0.672,4.693-2.014,6.441
			c-1.342,1.75-3.381,3.006-6.117,3.768l10.313,17.299h-3.17l-9.791-16.547H533.215z M533.215,861.022h7.244
			c3.203,0,5.689-0.715,7.457-2.143c1.766-1.43,2.648-3.537,2.648-6.324c0-2.893-0.867-4.996-2.598-6.313
			c-1.732-1.316-4.555-1.975-8.469-1.975h-6.283V861.022z"/>
		<path fill="#58595B" stroke="#58595B" stroke-width="4" stroke-miterlimit="10" d="M593.566,879.854h-20.754V841.88h20.754v2.441
			h-18.104v14.363h17.092v2.441h-17.092v16.285h18.104V879.854z"/>
		<path fill="#58595B" stroke="#58595B" stroke-width="4" stroke-miterlimit="10" d="M633.764,870.062
			c0,3.168-1.164,5.68-3.492,7.531c-2.332,1.855-5.426,2.781-9.287,2.781c-4.641,0-8.199-0.512-10.674-1.533v-2.648
			c2.734,1.16,6.225,1.738,10.467,1.738c3.115,0,5.588-0.713,7.414-2.143c1.828-1.428,2.742-3.303,2.742-5.623
			c0-1.436-0.305-2.627-0.91-3.57c-0.607-0.943-1.592-1.807-2.961-2.586s-3.377-1.617-6.025-2.518
			c-3.879-1.334-6.559-2.775-8.039-4.326c-1.48-1.549-2.221-3.615-2.221-6.193c0-2.84,1.111-5.156,3.338-6.949
			c2.225-1.793,5.086-2.688,8.582-2.688c3.568,0,6.918,0.676,10.053,2.025l-0.959,2.285c-3.152-1.316-6.166-1.975-9.039-1.975
			c-2.807,0-5.041,0.65-6.703,1.949c-1.66,1.299-2.492,3.064-2.492,5.299c0,1.402,0.256,2.555,0.766,3.453
			c0.51,0.902,1.346,1.711,2.506,2.43s3.152,1.58,5.975,2.584c2.961,1.023,5.186,2.014,6.676,2.975
			c1.488,0.961,2.576,2.053,3.26,3.271C633.42,866.854,633.764,868.331,633.764,870.062z"/>
		<path fill="#58595B" stroke="#58595B" stroke-width="4" stroke-miterlimit="10" d="M684.352,860.815
			c0,6.025-1.508,10.791-4.52,14.297c-3.014,3.508-7.168,5.262-12.467,5.262c-5.283,0-9.43-1.754-12.441-5.262
			c-3.014-3.506-4.521-8.289-4.521-14.35c0-6.043,1.52-10.801,4.559-14.273c3.041-3.471,7.189-5.207,12.455-5.207
			c5.299,0,9.445,1.744,12.441,5.234C682.854,850.005,684.352,854.772,684.352,860.815z M653.285,860.815
			c0,5.438,1.213,9.641,3.637,12.609c2.426,2.971,5.904,4.455,10.443,4.455c4.57,0,8.064-1.473,10.48-4.416
			c2.414-2.943,3.623-7.16,3.623-12.648c0-5.473-1.209-9.668-3.623-12.586c-2.416-2.916-5.893-4.375-10.43-4.375
			c-4.52,0-8.006,1.471-10.453,4.414C654.512,851.214,653.285,855.396,653.285,860.815z"/>
		<path fill="#58595B" stroke="#58595B" stroke-width="4" stroke-miterlimit="10" d="M731.641,841.88v24.572
			c0,4.363-1.264,7.775-3.793,10.232c-2.529,2.459-6.053,3.689-10.57,3.689c-4.398,0-7.832-1.234-10.301-3.701
			c-2.467-2.469-3.699-5.91-3.699-10.324V841.88h2.674v24.572c0,3.652,1.012,6.496,3.039,8.531c2.025,2.035,4.891,3.053,8.598,3.053
			c3.619,0,6.424-1,8.416-3c1.99-2,2.986-4.775,2.986-8.324V841.88H731.641z"/>
		<path fill="#58595B" stroke="#58595B" stroke-width="4" stroke-miterlimit="10" d="M755.266,863.308v16.547h-2.65V841.88h9.039
			c4.711,0,8.191,0.869,10.443,2.611c2.25,1.738,3.375,4.357,3.375,7.855c0,2.547-0.67,4.693-2.012,6.441
			c-1.342,1.75-3.381,3.006-6.117,3.768l10.311,17.299h-3.168l-9.793-16.547H755.266z M755.266,861.022h7.246
			c3.203,0,5.689-0.715,7.455-2.143c1.766-1.43,2.65-3.537,2.65-6.324c0-2.893-0.867-4.996-2.6-6.313
			c-1.73-1.316-4.555-1.975-8.465-1.975h-6.287V861.022z"/>
		<path fill="#58595B" stroke="#58595B" stroke-width="4" stroke-miterlimit="10" d="M811.074,843.724
			c-4.764,0-8.512,1.523-11.246,4.572c-2.738,3.047-4.105,7.221-4.105,12.52c0,5.42,1.291,9.627,3.869,12.623
			c2.582,2.996,6.27,4.492,11.066,4.492c3.186,0,6.111-0.406,8.779-1.219v2.336c-2.512,0.885-5.646,1.326-9.402,1.326
			c-5.334,0-9.533-1.723-12.598-5.17c-3.064-3.445-4.598-8.26-4.598-14.441c0-3.861,0.732-7.264,2.195-10.207
			s3.566-5.217,6.313-6.818c2.742-1.602,5.934-2.402,9.57-2.402c3.705,0,7.021,0.691,9.947,2.078l-1.064,2.389
			C817.031,844.417,814.121,843.724,811.074,843.724z"/>
		<path fill="#58595B" stroke="#58595B" stroke-width="4" stroke-miterlimit="10" d="M859.297,879.854h-20.754V841.88h20.754v2.441
			h-18.104v14.363h17.092v2.441h-17.092v16.285h18.104V879.854z"/>
		<path fill="#58595B" stroke="#58595B" stroke-width="4" stroke-miterlimit="10" d="M899.494,870.062
			c0,3.168-1.164,5.68-3.494,7.531c-2.33,1.855-5.426,2.781-9.285,2.781c-4.641,0-8.199-0.512-10.674-1.533v-2.648
			c2.734,1.16,6.225,1.738,10.467,1.738c3.115,0,5.588-0.713,7.414-2.143c1.826-1.428,2.74-3.303,2.74-5.623
			c0-1.436-0.303-2.627-0.908-3.57c-0.607-0.943-1.594-1.807-2.961-2.586c-1.369-0.779-3.377-1.617-6.027-2.518
			c-3.879-1.334-6.557-2.775-8.039-4.326c-1.479-1.549-2.221-3.615-2.221-6.193c0-2.84,1.113-5.156,3.34-6.949
			c2.225-1.793,5.086-2.688,8.582-2.688c3.568,0,6.918,0.676,10.053,2.025l-0.961,2.285c-3.15-1.316-6.164-1.975-9.039-1.975
			c-2.805,0-5.039,0.65-6.701,1.949s-2.492,3.064-2.492,5.299c0,1.402,0.254,2.555,0.766,3.453c0.51,0.902,1.346,1.711,2.506,2.43
			s3.152,1.58,5.975,2.584c2.961,1.023,5.186,2.014,6.676,2.975c1.488,0.961,2.576,2.053,3.26,3.271
			C899.15,866.854,899.494,868.331,899.494,870.062z"/>
	</g>
	<g>
		<path fill="#47B649" d="M723.361,344.796c0,122.633-99.41,222.045-222.043,222.045s-222.043-99.412-222.043-222.045
			c0-122.637,99.41-222.049,222.043-222.049S723.361,222.159,723.361,344.796z"/>
		<g>
			<g>
				<path fill="#226935" d="M503.904,494.397c-82.494,0-149.611-67.107-149.611-149.602c0-82.496,67.117-149.609,149.611-149.609
					c82.496,0,149.611,67.113,149.611,149.609C653.516,427.29,586.4,494.397,503.904,494.397z M503.904,199.083
					c-80.354,0-145.717,65.363-145.717,145.713c0,80.344,65.363,145.709,145.717,145.709c80.344,0,145.707-65.365,145.707-145.709
					C649.611,264.446,584.248,199.083,503.904,199.083z"/>
			</g>
			<path fill="#2DAD4A" d="M503.904,499.577c-85.352,0-154.783-69.441-154.783-154.781c0-85.354,69.432-154.783,154.783-154.783
				c56.877,0,109.064,31.1,136.18,81.154c1.992,3.689,0.619,8.287-3.051,10.273c-3.689,1.986-8.277,0.633-10.273-3.055
				c-24.463-45.162-71.539-73.221-122.855-73.221c-76.996,0-139.627,62.633-139.627,139.631c0,76.99,62.631,139.627,139.627,139.627
				c4.184,0,7.576,3.385,7.576,7.572C511.48,496.185,508.088,499.577,503.904,499.577z"/>
			<g>
				<path fill-rule="evenodd" clip-rule="evenodd" fill="#055C9B" d="M475.344,363.583c21.367,0,42.732,0.012,64.1-0.006
					c23.785-0.021,44.52-16.369,50.115-39.477c6.039-24.953-7.223-50.496-31.186-60.064c-18.975-7.57-40.74-3.09-55.299,11.4
					c-1.219,1.219-2.572,2.004-4.326,1.742c-1.844-0.273-3.164-1.309-3.762-3.098c-0.609-1.809-0.188-3.447,1.166-4.814
					c4.428-4.508,9.438-8.252,15.043-11.182c34.543-18.039,77.049,0.703,87.031,38.365c7.82,29.482-7.57,60.355-35.818,71.863
					c-7.342,2.994-14.975,4.508-22.908,4.508c-43.984,0-87.98-0.012-131.967,0.027c-3.244,0-5.168-2.316-5.15-4.672
					c0.018-2.436,1.912-4.451,4.354-4.582c0.455-0.021,0.922-0.012,1.383-0.012C430.527,363.583,452.93,363.583,475.344,363.583z"/>
				<path fill-rule="evenodd" clip-rule="evenodd" fill="#055C9B" d="M477.508,350.942c-23.359,0-46.719,0-70.076,0
					c-2.607,0-4.439-1.354-4.941-3.643c-0.592-2.697,1.332-5.328,4.082-5.561c0.551-0.045,1.098-0.035,1.656-0.035
					c45.953,0,91.896,0.035,137.852-0.027c9.311-0.012,16.135-4.406,20.068-12.824c4.395-9.408,1.178-20.502-7.428-26.551
					c-8.27-5.822-19.768-4.941-27.143,2.1c-0.969,0.928-1.971,1.742-3.375,1.885c-1.953,0.193-3.803-0.85-4.65-2.625
					c-0.842-1.764-0.518-3.797,0.916-5.254c3.512-3.574,7.666-6.158,12.447-7.705c14.719-4.764,30.758,2.15,37.383,16.102
					c6.676,14.029,1.912,30.797-11.145,39.209c-5.1,3.279-10.689,4.93-16.762,4.93C523.434,350.942,500.479,350.942,477.508,350.942
					z"/>
				<path fill-rule="evenodd" clip-rule="evenodd" fill="#055C9B" d="M467.404,394.358c-19.898,0-39.797,0.012-59.699-0.012
					c-0.922-0.012-1.912-0.137-2.756-0.512c-1.889-0.82-2.873-2.938-2.486-4.947c0.393-2.037,2.02-3.533,4.104-3.75
					c0.363-0.033,0.734-0.033,1.098-0.033c39.398,0,78.801-0.059,118.199,0.027c11.623,0.023,20.143,5.453,24.975,16.021
					c7.092,15.539-2.869,34.002-19.715,36.848c-8.959,1.51-16.773-0.955-23.371-7.217c-2.076-1.969-2.207-4.871-0.342-6.783
					c1.855-1.902,4.686-1.891,6.717,0.113c8.424,8.287,22.266,6.141,27.764-4.348c5.771-11.037-1.82-24.531-14.24-25.34
					c-0.797-0.045-1.588-0.057-2.385-0.057C505.977,394.358,486.693,394.358,467.404,394.358z"/>
				<path fill-rule="evenodd" clip-rule="evenodd" fill="#055C9B" d="M452.725,328.882c-15.121,0-30.244,0-45.361,0
					c-2.563,0-4.412-1.424-4.889-3.717c-0.559-2.703,1.41-5.311,4.16-5.504c0.512-0.035,1.035-0.023,1.559-0.023
					c29.541,0,59.08,0,88.613,0c5.414,0,9.898-3.006,11.754-7.844c2.004-5.236,0.113-11.223-4.531-14.354
					c-4.764-3.211-11.002-2.732-15.15,1.219c-1.172,1.109-2.447,1.85-4.098,1.65c-1.896-0.217-3.244-1.252-3.883-3.057
					c-0.643-1.805-0.244-3.461,1.105-4.82c3.949-3.973,8.748-6.137,14.342-6.324c11.965-0.404,21.697,8.646,22.244,20.598
					c0.557,11.908-9.17,22.107-21.23,22.164c-11.975,0.051-23.951,0.012-35.908,0.012
					C458.543,328.882,455.639,328.882,452.725,328.882z"/>
			</g>
		</g>
		<g>
			<g>
				<path fill="#FFFFFF" d="M503.904,494.397c-82.494,0-149.611-67.107-149.611-149.602c0-82.496,67.117-149.609,149.611-149.609
					c82.496,0,149.611,67.113,149.611,149.609C653.516,427.29,586.4,494.397,503.904,494.397z M503.904,199.083
					c-80.354,0-145.717,65.363-145.717,145.713c0,80.344,65.363,145.709,145.717,145.709c80.344,0,145.707-65.365,145.707-145.709
					C649.611,264.446,584.248,199.083,503.904,199.083z"/>
			</g>
			<path fill="#FFFFFF" d="M503.904,499.577c-85.352,0-154.783-69.441-154.783-154.781c0-85.354,69.432-154.783,154.783-154.783
				c56.877,0,109.064,31.1,136.18,81.154c1.992,3.689,0.619,8.287-3.051,10.273c-3.689,1.986-8.277,0.633-10.273-3.055
				c-24.463-45.162-71.539-73.221-122.855-73.221c-76.996,0-139.627,62.633-139.627,139.631c0,76.99,62.631,139.627,139.627,139.627
				c4.184,0,7.576,3.385,7.576,7.572C511.48,496.185,508.088,499.577,503.904,499.577z"/>
			<g>
				<path fill-rule="evenodd" clip-rule="evenodd" fill="#FFFFFF" d="M475.344,363.583c21.367,0,42.732,0.012,64.1-0.006
					c23.785-0.021,44.52-16.369,50.115-39.477c6.039-24.953-7.223-50.496-31.186-60.064c-18.975-7.57-40.74-3.09-55.299,11.4
					c-1.219,1.219-2.572,2.004-4.326,1.742c-1.844-0.273-3.164-1.309-3.762-3.098c-0.609-1.809-0.188-3.447,1.166-4.814
					c4.428-4.508,9.438-8.252,15.043-11.182c34.543-18.039,77.049,0.703,87.031,38.365c7.82,29.482-7.57,60.355-35.818,71.863
					c-7.342,2.994-14.975,4.508-22.908,4.508c-43.984,0-87.98-0.012-131.967,0.027c-3.244,0-5.168-2.316-5.15-4.672
					c0.018-2.436,1.912-4.451,4.354-4.582c0.455-0.021,0.922-0.012,1.383-0.012C430.527,363.583,452.93,363.583,475.344,363.583z"/>
				<path fill-rule="evenodd" clip-rule="evenodd" fill="#FFFFFF" d="M477.508,350.942c-23.359,0-46.719,0-70.076,0
					c-2.607,0-4.439-1.354-4.941-3.643c-0.592-2.697,1.332-5.328,4.082-5.561c0.551-0.045,1.098-0.035,1.656-0.035
					c45.953,0,91.896,0.035,137.852-0.027c9.311-0.012,16.135-4.406,20.068-12.824c4.395-9.408,1.178-20.502-7.428-26.551
					c-8.27-5.822-19.768-4.941-27.143,2.1c-0.969,0.928-1.971,1.742-3.375,1.885c-1.953,0.193-3.803-0.85-4.65-2.625
					c-0.842-1.764-0.518-3.797,0.916-5.254c3.512-3.574,7.666-6.158,12.447-7.705c14.719-4.764,30.758,2.15,37.383,16.102
					c6.676,14.029,1.912,30.797-11.145,39.209c-5.1,3.279-10.689,4.93-16.762,4.93C523.434,350.942,500.479,350.942,477.508,350.942
					z"/>
				<path fill-rule="evenodd" clip-rule="evenodd" fill="#FFFFFF" d="M467.404,394.358c-19.898,0-39.797,0.012-59.699-0.012
					c-0.922-0.012-1.912-0.137-2.756-0.512c-1.889-0.82-2.873-2.938-2.486-4.947c0.393-2.037,2.02-3.533,4.104-3.75
					c0.363-0.033,0.734-0.033,1.098-0.033c39.398,0,78.801-0.059,118.199,0.027c11.623,0.023,20.143,5.453,24.975,16.021
					c7.092,15.539-2.869,34.002-19.715,36.848c-8.959,1.51-16.773-0.955-23.371-7.217c-2.076-1.969-2.207-4.871-0.342-6.783
					c1.855-1.902,4.686-1.891,6.717,0.113c8.424,8.287,22.266,6.141,27.764-4.348c5.771-11.037-1.82-24.531-14.24-25.34
					c-0.797-0.045-1.588-0.057-2.385-0.057C505.977,394.358,486.693,394.358,467.404,394.358z"/>
				<path fill-rule="evenodd" clip-rule="evenodd" fill="#FFFFFF" d="M452.725,328.882c-15.121,0-30.244,0-45.361,0
					c-2.563,0-4.412-1.424-4.889-3.717c-0.559-2.703,1.41-5.311,4.16-5.504c0.512-0.035,1.035-0.023,1.559-0.023
					c29.541,0,59.08,0,88.613,0c5.414,0,9.898-3.006,11.754-7.844c2.004-5.236,0.113-11.223-4.531-14.354
					c-4.764-3.211-11.002-2.732-15.15,1.219c-1.172,1.109-2.447,1.85-4.098,1.65c-1.896-0.217-3.244-1.252-3.883-3.057
					c-0.643-1.805-0.244-3.461,1.105-4.82c3.949-3.973,8.748-6.137,14.342-6.324c11.965-0.404,21.697,8.646,22.244,20.598
					c0.557,11.908-9.17,22.107-21.23,22.164c-11.975,0.051-23.951,0.012-35.908,0.012
					C458.543,328.882,455.639,328.882,452.725,328.882z"/>
			</g>
		</g>
	</g>
</g>
</svg>
