<?xml version="1.0" encoding="utf-8"?>
<!-- Generator: Adobe Illustrator 16.0.3, SVG Export Plug-In . SVG Version: 6.00 Build 0)  -->
<!DOCTYPE svg PUBLIC "-//W3C//DTD SVG 1.1//EN" "http://www.w3.org/Graphics/SVG/1.1/DTD/svg11.dtd">
<svg version="1.1" id="Layer_1" xmlns="http://www.w3.org/2000/svg" xmlns:xlink="http://www.w3.org/1999/xlink" x="0px" y="0px"
	 width="392.98px" height="405.195px" viewBox="0 0 392.98 405.195" enable-background="new 0 0 392.98 405.195"
	 xml:space="preserve">
<g>
	<g>
		<path fill="#FBA919" d="M272.362,136.565c-5.187-36.873-10.691-73.695-16.106-110.539c-1.047-7.066-2.193-7.418-8.041-3.063
			c-7.255,5.402-14.184,11.382-21.936,16.004c-9.671,5.783-19.63,8.443-29.732,8.396h-0.113
			c-10.098,0.047-20.062-2.613-29.733-8.396c-7.752-4.622-14.675-10.602-21.935-16.004c-5.848-4.354-6.984-4.003-8.038,3.063
			c-5.419,36.844-10.923,73.666-16.109,110.539c-2.146,15.167-3.428,30.486-1.638,45.775c1.572,13.437,3.998,26.763,6.095,40.139
			c0.191,1.177,0.504,2.326,0.798,3.467c0,0.012,0.01,0.012,0.01,0.022c0.083,0.157,0.316,0.581,0.713,0.595
			c0.49,0.022,0.861-0.342,0.967-0.789c1.057-3.777,2.111-7.59,3.317-11.829c8.355,12.545,19.582,20.882,32.646,26.376
			c-4.787,2.769-8.689,5.67-10.881,7.396c0,0-0.005,0.005-0.016,0.012c-0.105,0.118-0.576,0.645-0.395,1.005
			c0.188,0.37,0.372,0.522,0.988,0.548h86.54c0.609-0.025,0.796-0.178,0.987-0.548c0.183-0.36-0.293-0.887-0.401-1.005
			c-0.007-0.007-0.014-0.012-0.014-0.012c-2.19-1.726-6.093-4.627-10.877-7.396c13.061-5.494,24.29-13.831,32.643-26.376
			c1.206,4.239,2.261,8.052,3.317,11.829c0.103,0.447,0.477,0.812,0.962,0.789c0.399-0.014,0.635-0.438,0.714-0.595
			c0-0.014,0.01-0.014,0.01-0.022c0.302-1.141,0.615-2.29,0.802-3.467c2.097-13.376,4.526-26.703,6.094-40.139
			C275.79,167.052,274.506,151.732,272.362,136.565z M244.584,109.416c-9.593,10.97-21.807,11.68-37.996,2.19
			c-2.351,4.986-4.573,9.859-6.936,14.639c-0.793,1.66-1.824,3.255-2.967,4.695c-2.488,3.137-3.944,2.874-5.356-0.901
			c-2.271-5.996-4.487-12.022-6.892-18.433c-6.76,5.822-14.183,8.512-22.828,6.757c-5.887-1.193-10.797-4.115-14.563-8.794
			c-7.939-9.877-7.606-23.205,0.728-32.758c7.711-8.814,21.371-10.981,31.424-4.978c11.787,7.063,15.125,19.063,9.475,34.459
			c4.415-0.04,8.75-0.102,13.623-0.154c-4.257-8.128-5.156-16.041-1.8-24.123c2.483-5.962,6.751-10.374,12.505-13.35
			c10.854-5.642,24.658-2.629,32.198,7.043C253.293,86.077,253.05,99.712,244.584,109.416z"/>
		<path fill="#FBA919" d="M234.181,92.862c-0.074,5.282-4.393,9.507-9.697,9.474c-5.185-0.047-9.511-4.471-9.479-9.704
			c0.032-5.353,4.609-9.819,9.894-9.621C230.218,83.205,234.275,87.501,234.181,92.862z"/>
		<path fill="#FBA919" d="M166.87,103.298c-5.452,0.115-9.638-3.815-9.822-9.202c-0.193-5.359,3.84-9.733,9.146-9.902
			c5.498-0.186,9.964,3.978,10.029,9.387C176.311,98.909,172.176,103.188,166.87,103.298z"/>
	</g>
	<g>
		<g>
			<path fill="#212121" d="M74.482,352.074h-2.211l29.023-71.702h2.61l28.322,71.702h-2.21l-9.439-23.601H84.021L74.482,352.074z
				 M102.703,282.382h-0.202l-17.677,44.083h34.947L102.703,282.382z"/>
			<path fill="#212121" d="M136.645,290.516v-10.144h2.008v10.144H136.645z M136.645,352.074v-51.616h2.008v51.616H136.645z"/>
			<path fill="#212121" d="M149.699,352.074v-51.616h2.009v12.752h0.198c0.469-1.939,1.205-3.767,2.21-5.472
				c1.005-1.708,2.343-3.199,4.019-4.47c1.671-1.271,3.663-2.275,5.977-3.013c2.309-0.737,4.998-1.07,8.081-1.005v2.01
				c-3.548-0.201-6.61,0.284-9.188,1.455c-2.576,1.173-4.705,2.778-6.376,4.82c-1.675,2.044-2.914,4.403-3.717,7.08
				c-0.804,2.68-1.203,5.422-1.203,8.234v29.224H149.699z"/>
			<path fill="#212121" d="M174.498,316.073c1.009-3.247,2.494-6.108,4.471-8.587c1.977-2.478,4.404-4.47,7.282-5.977
				c2.878-1.505,6.229-2.259,10.041-2.259c3.75,0,7.061,0.754,9.944,2.259c2.875,1.507,5.303,3.499,7.279,5.977
				c1.973,2.479,3.463,5.34,4.471,8.587c1.004,3.246,1.506,6.645,1.506,10.192c0,3.55-0.502,6.946-1.506,10.19
				c-1.008,3.25-2.498,6.113-4.471,8.587c-1.977,2.478-4.404,4.454-7.279,5.929c-2.884,1.47-6.228,2.207-10.044,2.207
				c-3.753,0-7.063-0.737-9.941-2.207c-2.878-1.475-5.306-3.451-7.282-5.929c-1.977-2.474-3.462-5.337-4.471-8.587
				c-1.001-3.244-1.502-6.641-1.502-10.19C172.996,322.718,173.497,319.319,174.498,316.073z M176.355,335.703
				c0.904,3.014,2.264,5.677,4.07,7.985c1.808,2.307,4.035,4.152,6.678,5.521c2.646,1.375,5.705,2.061,9.188,2.061
				c3.417,0,6.442-0.686,9.09-2.061c2.643-1.369,4.869-3.215,6.677-5.521c1.812-2.309,3.166-4.972,4.067-7.985
				c0.902-3.011,1.354-6.157,1.354-9.438c0-3.214-0.452-6.327-1.354-9.339c-0.901-3.014-2.256-5.674-4.067-7.984
				c-1.808-2.312-4.034-4.168-6.677-5.574c-2.647-1.406-5.673-2.107-9.09-2.107c-3.483,0-6.542,0.701-9.188,2.107
				c-2.643,1.406-4.87,3.263-6.678,5.574c-1.807,2.311-3.166,4.971-4.07,7.984c-0.898,3.012-1.352,6.125-1.352,9.339
				C175.004,329.546,175.457,332.692,176.355,335.703z"/>
			<path fill="#212121" d="M291.894,300.458l-16.471,51.616h-2.61l-16.066-49.609h-0.202l-16.166,49.609h-2.812l-15.965-51.616
				h1.905l15.364,49.607h0.202l15.964-49.607h3.115l15.867,49.607h0.201l15.664-49.607H291.894z"/>
			<path fill="#212121" d="M298.621,280.372v71.702h-2.006v-71.702H298.621z"/>
		</g>
		<g>
			<g>
				<path fill="#212121" d="M231.985,368.847c2.888,0,5.062,0.48,6.509,1.432c1.451,0.96,2.182,2.465,2.182,4.523
					c0,2.07-0.729,3.584-2.168,4.539c-1.451,0.952-3.625,1.431-6.522,1.431c-2.917,0-5.095-0.479-6.531-1.431
					c-1.442-0.955-2.158-2.469-2.158-4.539c0-2.059,0.716-3.563,2.167-4.523C226.907,369.327,229.081,368.847,231.985,368.847z
					 M231.985,377.772c0.918,0,1.705-0.041,2.342-0.117c0.642-0.068,1.16-0.218,1.558-0.44c0.392-0.213,0.68-0.517,0.861-0.903
					c0.176-0.388,0.268-0.889,0.268-1.51c0-0.622-0.092-1.123-0.268-1.51c-0.182-0.388-0.47-0.687-0.861-0.893
					c-0.397-0.219-0.916-0.36-1.558-0.437c-0.637-0.076-1.424-0.108-2.342-0.108c-0.929,0-1.712,0.032-2.349,0.108
					c-0.638,0.076-1.16,0.218-1.554,0.437c-0.396,0.206-0.687,0.505-0.865,0.893c-0.176,0.387-0.268,0.888-0.268,1.51
					c0,0.621,0.092,1.122,0.268,1.51c0.179,0.387,0.47,0.69,0.865,0.903c0.394,0.223,0.916,0.372,1.554,0.44
					C230.273,377.731,231.057,377.772,231.985,377.772z"/>
				<path fill="#212121" d="M246.269,380.74h-3.677v-11.894h3.677V380.74z"/>
				<path fill="#212121" d="M263.274,380.74h-13.483c-0.467,0-0.862-0.13-1.2-0.382c-0.337-0.256-0.509-0.627-0.509-1.112
					c0-0.272,0.072-0.54,0.215-0.788c0.143-0.257,0.337-0.485,0.581-0.686l4.339-3.412c0.5-0.392,0.925-0.725,1.285-1.01
					c0.348-0.277,0.657-0.512,0.922-0.707c0.262-0.195,0.479-0.354,0.648-0.469c0.175-0.119,0.316-0.224,0.42-0.305
					c-0.169,0.011-0.361,0.022-0.58,0.034c-0.218,0.016-0.494,0.02-0.822,0.026c-0.32,0.006-0.707,0.009-1.143,0.009
					c-0.437,0-0.955,0-1.55,0h-3.535l-0.01-3.093h12.096c0.462,0,0.866,0.13,1.203,0.381c0.337,0.261,0.505,0.628,0.505,1.111
					c0,0.273-0.076,0.541-0.211,0.795c-0.146,0.258-0.338,0.477-0.588,0.665l-4.393,3.481c-0.484,0.394-0.904,0.726-1.264,0.998
					c-0.354,0.271-0.658,0.506-0.909,0.703c-0.255,0.195-0.47,0.348-0.631,0.468c-0.169,0.121-0.311,0.224-0.431,0.306
					c0.14-0.012,0.388-0.023,0.725-0.027c0.337-0.006,0.724-0.012,1.159-0.018c0.437-0.012,0.905-0.014,1.404-0.021
					s0.978-0.007,1.44-0.007h4.315V380.74z"/>
				<path fill="#212121" d="M272.856,368.847c2.894,0,5.062,0.48,6.519,1.432c1.446,0.96,2.175,2.465,2.175,4.523
					c0,2.07-0.722,3.584-2.171,4.539c-1.445,0.952-3.618,1.431-6.522,1.431c-2.914,0-5.089-0.479-6.533-1.431
					c-1.436-0.955-2.157-2.469-2.157-4.539c0-2.059,0.727-3.563,2.172-4.523C267.78,369.327,269.951,368.847,272.856,368.847z
					 M272.856,377.772c0.927,0,1.707-0.041,2.349-0.117c0.638-0.068,1.156-0.218,1.553-0.44c0.396-0.213,0.688-0.517,0.866-0.903
					c0.174-0.388,0.268-0.889,0.268-1.51c0-0.622-0.094-1.123-0.268-1.51c-0.179-0.388-0.47-0.687-0.866-0.893
					c-0.396-0.219-0.915-0.36-1.553-0.437c-0.642-0.076-1.422-0.108-2.349-0.108c-0.919,0-1.705,0.032-2.347,0.108
					c-0.637,0.076-1.156,0.218-1.553,0.437c-0.398,0.206-0.688,0.505-0.863,0.893c-0.178,0.387-0.268,0.888-0.268,1.51
					c0,0.621,0.09,1.122,0.268,1.51c0.176,0.387,0.465,0.69,0.863,0.903c0.396,0.223,0.916,0.372,1.553,0.44
					C271.151,377.731,271.938,377.772,272.856,377.772z"/>
				<path fill="#212121" d="M291.11,373.4c0.262,0.453,0.489,0.851,0.684,1.199c0.198,0.337,0.37,0.647,0.513,0.909
					c0.152,0.273,0.277,0.518,0.393,0.736c0.116,0.224,0.226,0.441,0.334,0.648c0.094-0.207,0.195-0.42,0.311-0.639
					c0.109-0.211,0.238-0.455,0.388-0.733c0.151-0.274,0.32-0.578,0.515-0.915c0.198-0.339,0.426-0.736,0.688-1.19l1.902-3.323
					c0.212-0.37,0.479-0.674,0.807-0.898c0.326-0.229,0.73-0.344,1.213-0.344c0.466,0,0.886,0.133,1.255,0.394
					c0.374,0.261,0.642,0.67,0.81,1.216l3.004,10.285h-3.661l-1.116-4.08c-0.192-0.659-0.352-1.242-0.479-1.744
					c-0.133-0.501-0.248-0.992-0.34-1.471c-0.202,0.412-0.424,0.86-0.674,1.357c-0.251,0.496-0.579,1.12-0.981,1.879l-1.596,2.74
					c-0.152,0.294-0.312,0.522-0.473,0.691c-0.159,0.169-0.324,0.301-0.486,0.393c-0.168,0.092-0.351,0.152-0.535,0.185
					c-0.191,0.028-0.396,0.045-0.621,0.045c-0.228,0-0.437-0.017-0.625-0.045c-0.188-0.032-0.366-0.093-0.527-0.185
					c-0.172-0.092-0.334-0.224-0.493-0.393s-0.313-0.397-0.473-0.691l-1.596-2.762c-0.218-0.394-0.402-0.746-0.575-1.063
					c-0.162-0.315-0.314-0.6-0.449-0.845c-0.139-0.257-0.257-0.485-0.356-0.693c-0.096-0.211-0.202-0.417-0.294-0.614
					c-0.092,0.469-0.205,0.955-0.337,1.46c-0.129,0.505-0.285,1.096-0.463,1.755l-1.116,4.08h-3.611l3.076-10.285
					c0.165-0.546,0.436-0.955,0.818-1.216c0.38-0.261,0.8-0.394,1.259-0.394c0.479,0,0.876,0.115,1.203,0.334
					c0.327,0.223,0.595,0.529,0.813,0.908L291.11,373.4z"/>
			</g>
		</g>
		<g>
			<path fill="#212121" d="M75.107,371.951v1.38h0.036c0.7-1.063,1.712-1.596,3.03-1.596c0.578,0,1.106,0.119,1.576,0.36
				c0.473,0.244,0.806,0.65,0.994,1.235c0.316-0.508,0.73-0.902,1.242-1.179c0.516-0.278,1.081-0.417,1.698-0.417
				c0.473,0,0.896,0.05,1.279,0.151c0.379,0.103,0.706,0.266,0.978,0.482c0.273,0.219,0.482,0.499,0.635,0.842
				c0.151,0.345,0.228,0.759,0.228,1.241v6.874h-1.542v-6.148c0-0.29-0.023-0.562-0.074-0.815c-0.047-0.254-0.139-0.473-0.27-0.661
				c-0.137-0.186-0.318-0.336-0.557-0.444c-0.234-0.109-0.537-0.164-0.915-0.164c-0.763,0-1.357,0.219-1.791,0.654
				c-0.437,0.433-0.653,1.017-0.653,1.741v5.838h-1.543v-6.148c0-0.301-0.027-0.578-0.083-0.834
				c-0.054-0.249-0.146-0.474-0.277-0.659c-0.136-0.188-0.313-0.334-0.538-0.437c-0.226-0.102-0.51-0.155-0.859-0.155
				c-0.449,0-0.833,0.09-1.149,0.272c-0.324,0.184-0.586,0.401-0.78,0.651c-0.201,0.256-0.347,0.518-0.436,0.791
				c-0.094,0.271-0.137,0.497-0.137,0.681v5.838h-1.543v-9.375H75.107z"/>
			<path fill="#212121" d="M98.334,381.29c-0.264,0.158-0.634,0.234-1.105,0.234c-0.4,0-0.715-0.111-0.948-0.336
				c-0.239-0.223-0.358-0.589-0.358-1.098c-0.422,0.509-0.914,0.875-1.477,1.098c-0.562,0.225-1.169,0.336-1.823,0.336
				c-0.423,0-0.822-0.049-1.203-0.145c-0.383-0.096-0.711-0.248-0.991-0.455c-0.277-0.203-0.494-0.475-0.66-0.807
				c-0.162-0.33-0.245-0.73-0.245-1.204c0-0.535,0.093-0.968,0.271-1.308c0.182-0.337,0.42-0.609,0.717-0.822
				c0.298-0.212,0.635-0.373,1.019-0.479c0.38-0.109,0.767-0.202,1.167-0.271c0.422-0.089,0.825-0.152,1.208-0.191
				c0.381-0.043,0.714-0.104,1.005-0.183c0.291-0.08,0.518-0.195,0.687-0.348c0.173-0.147,0.255-0.369,0.255-0.658
				c0-0.338-0.063-0.609-0.191-0.818c-0.126-0.206-0.291-0.36-0.485-0.471c-0.202-0.108-0.427-0.183-0.674-0.218
				c-0.248-0.034-0.493-0.055-0.733-0.055c-0.65,0-1.196,0.123-1.633,0.374c-0.433,0.243-0.67,0.713-0.707,1.405h-1.54
				c0.023-0.582,0.142-1.07,0.361-1.472c0.217-0.397,0.507-0.72,0.872-0.968c0.363-0.246,0.776-0.426,1.241-0.535
				c0.464-0.109,0.966-0.162,1.497-0.162c0.42,0,0.84,0.029,1.259,0.093c0.416,0.059,0.794,0.181,1.134,0.37
				c0.34,0.185,0.611,0.445,0.815,0.782c0.206,0.339,0.308,0.779,0.308,1.321v4.814c0,0.359,0.023,0.627,0.066,0.797
				c0.039,0.168,0.181,0.253,0.424,0.253c0.131,0,0.29-0.025,0.471-0.075V381.29z M95.83,376.485
				c-0.188,0.143-0.446,0.251-0.76,0.314c-0.311,0.066-0.645,0.121-0.988,0.166c-0.344,0.039-0.69,0.086-1.041,0.14
				c-0.354,0.056-0.664,0.144-0.941,0.263c-0.28,0.119-0.509,0.295-0.681,0.514c-0.175,0.224-0.265,0.527-0.265,0.914
				c0,0.25,0.05,0.462,0.156,0.64c0.102,0.173,0.234,0.315,0.396,0.421c0.165,0.108,0.354,0.188,0.571,0.234
				c0.218,0.05,0.446,0.075,0.69,0.075c0.506,0,0.941-0.068,1.305-0.206c0.36-0.141,0.658-0.314,0.89-0.524
				c0.228-0.21,0.396-0.438,0.506-0.687c0.108-0.248,0.161-0.478,0.161-0.695V376.485z"/>
			<path fill="#212121" d="M107.51,381.326v-1.271h-0.037c-0.254,0.521-0.653,0.898-1.195,1.125
				c-0.545,0.229-1.143,0.344-1.798,0.344c-0.724,0-1.354-0.131-1.893-0.397c-0.539-0.266-0.984-0.621-1.342-1.071
				c-0.356-0.447-0.624-0.966-0.806-1.561c-0.186-0.588-0.274-1.219-0.274-1.885c0-0.665,0.089-1.291,0.265-1.885
				c0.175-0.592,0.442-1.111,0.796-1.551c0.359-0.441,0.806-0.792,1.341-1.052c0.539-0.26,1.163-0.388,1.877-0.388
				c0.241,0,0.502,0.023,0.78,0.069c0.278,0.05,0.555,0.132,0.836,0.245c0.277,0.115,0.542,0.268,0.789,0.455
				c0.245,0.188,0.456,0.42,0.624,0.697h0.037v-4.823h1.54v12.947H107.51z M101.972,377.999c0.113,0.413,0.288,0.787,0.522,1.113
				c0.238,0.328,0.539,0.588,0.909,0.78c0.366,0.193,0.8,0.29,1.296,0.29c0.521,0,0.961-0.102,1.324-0.31
				c0.359-0.204,0.657-0.472,0.888-0.807c0.231-0.332,0.394-0.707,0.499-1.133c0.104-0.423,0.152-0.849,0.152-1.285
				c0-0.459-0.053-0.905-0.162-1.336c-0.108-0.427-0.28-0.805-0.518-1.133c-0.235-0.326-0.543-0.588-0.916-0.786
				c-0.373-0.2-0.826-0.301-1.358-0.301c-0.521,0-0.962,0.104-1.324,0.308c-0.36,0.208-0.655,0.479-0.872,0.817
				c-0.219,0.34-0.373,0.726-0.466,1.162c-0.099,0.436-0.148,0.881-0.148,1.339C101.798,377.153,101.853,377.579,101.972,377.999z"
				/>
			<path fill="#212121" d="M118.969,380.729c-0.702,0.528-1.583,0.796-2.646,0.796c-0.75,0-1.402-0.119-1.949-0.363
				c-0.552-0.241-1.016-0.579-1.392-1.014c-0.374-0.436-0.65-0.955-0.84-1.56c-0.188-0.604-0.293-1.265-0.321-1.978
				c0-0.714,0.11-1.364,0.328-1.956c0.218-0.593,0.522-1.105,0.916-1.541c0.393-0.437,0.861-0.773,1.396-1.018
				c0.539-0.241,1.127-0.36,1.769-0.36c0.835,0,1.526,0.17,2.074,0.516c0.552,0.343,0.995,0.782,1.325,1.314
				c0.334,0.531,0.563,1.11,0.69,1.739c0.129,0.63,0.175,1.228,0.155,1.796h-7.018c-0.014,0.41,0.036,0.8,0.145,1.171
				c0.109,0.369,0.281,0.693,0.526,0.979c0.237,0.282,0.548,0.509,0.925,0.68c0.374,0.168,0.816,0.253,1.324,0.253
				c0.651,0,1.184-0.15,1.604-0.451c0.419-0.305,0.69-0.762,0.822-1.378h1.523C120.122,379.405,119.668,380.194,118.969,380.729z
				 M118.595,374.708c-0.135-0.326-0.323-0.611-0.562-0.846c-0.234-0.232-0.513-0.421-0.832-0.559
				c-0.324-0.14-0.679-0.211-1.064-0.211c-0.396,0-0.757,0.071-1.076,0.211c-0.321,0.138-0.596,0.326-0.824,0.573
				c-0.23,0.237-0.413,0.521-0.545,0.841c-0.132,0.318-0.214,0.662-0.234,1.024h5.382
				C118.816,375.38,118.736,375.036,118.595,374.708z"/>
			<path fill="#212121" d="M136.575,381.326l-1.907-7.449h-0.032l-1.887,7.449h-1.668l-3.014-9.375h1.708l2.117,7.67h0.041
				l1.883-7.67h1.688l1.955,7.67h0.04l2.102-7.67h1.596l-2.993,9.375H136.575z"/>
			<path fill="#212121" d="M143.662,370.265v-1.886h1.543v1.886H143.662z M145.205,371.951v9.375h-1.543v-9.375H145.205z"/>
			<path fill="#212121" d="M152.511,371.951v1.36h-1.866v5.822c0,0.178,0.012,0.326,0.046,0.436c0.026,0.108,0.085,0.189,0.172,0.25
				c0.085,0.064,0.2,0.1,0.35,0.119c0.155,0.018,0.351,0.026,0.592,0.026h0.707v1.361h-1.177c-0.399,0-0.743-0.027-1.023-0.082
				c-0.285-0.056-0.517-0.155-0.691-0.301c-0.178-0.145-0.308-0.35-0.39-0.614c-0.086-0.265-0.129-0.617-0.129-1.051v-5.967h-1.593
				v-1.36h1.593v-2.81h1.544v2.81H152.511z"/>
			<path fill="#212121" d="M156.66,368.379v4.952h0.04c0.119-0.293,0.287-0.535,0.505-0.737c0.219-0.197,0.463-0.361,0.737-0.489
				c0.271-0.124,0.556-0.218,0.852-0.276c0.298-0.063,0.583-0.093,0.859-0.093c0.622,0,1.134,0.082,1.54,0.25
				c0.416,0.172,0.746,0.408,1.002,0.708c0.253,0.304,0.432,0.664,0.535,1.081c0.102,0.416,0.154,0.88,0.154,1.387v6.165h-1.543
				v-6.345c0-0.584-0.168-1.041-0.505-1.379c-0.341-0.338-0.81-0.51-1.398-0.51c-0.472,0-0.882,0.073-1.226,0.219
				c-0.343,0.146-0.63,0.35-0.858,0.617c-0.229,0.266-0.403,0.579-0.52,0.932c-0.111,0.357-0.175,0.748-0.175,1.174v5.292h-1.537
				v-12.947H156.66z"/>
			<path fill="#212121" d="M197.441,368.379v4.844h0.036c0.251-0.522,0.651-0.899,1.196-1.134c0.546-0.238,1.144-0.354,1.797-0.354
				c0.724,0,1.358,0.132,1.894,0.396c0.535,0.268,0.985,0.627,1.343,1.079c0.356,0.453,0.624,0.978,0.805,1.569
				c0.183,0.593,0.275,1.22,0.275,1.885c0,0.664-0.09,1.297-0.265,1.885c-0.179,0.593-0.442,1.111-0.8,1.553
				c-0.357,0.44-0.803,0.79-1.338,1.04c-0.542,0.257-1.166,0.382-1.88,0.382c-0.229,0-0.485-0.022-0.77-0.07
				c-0.282-0.049-0.565-0.128-0.844-0.236c-0.276-0.109-0.542-0.258-0.789-0.446c-0.247-0.187-0.456-0.42-0.625-0.696h-0.036v1.251
				h-1.543v-12.947H197.441z M202.979,375.277c-0.111-0.417-0.29-0.787-0.524-1.113c-0.235-0.328-0.538-0.589-0.905-0.78
				c-0.371-0.194-0.8-0.291-1.296-0.291c-0.521,0-0.964,0.104-1.324,0.308c-0.363,0.208-0.657,0.477-0.89,0.806
				c-0.23,0.334-0.396,0.712-0.498,1.135c-0.105,0.426-0.152,0.854-0.152,1.287c0,0.461,0.053,0.905,0.163,1.334
				c0.108,0.431,0.28,0.806,0.518,1.134c0.234,0.325,0.539,0.587,0.915,0.788c0.373,0.2,0.826,0.299,1.355,0.299
				c0.535,0,0.977-0.102,1.334-0.31c0.357-0.204,0.645-0.472,0.863-0.813c0.217-0.338,0.376-0.727,0.472-1.16
				c0.093-0.436,0.142-0.884,0.142-1.343C203.15,376.119,203.096,375.694,202.979,375.277z"/>
			<path fill="#212121" d="M211.187,382.575c-0.185,0.462-0.36,0.849-0.535,1.16c-0.179,0.316-0.367,0.573-0.581,0.773
				c-0.213,0.197-0.447,0.343-0.707,0.434c-0.258,0.092-0.559,0.138-0.896,0.138c-0.183,0-0.363-0.013-0.546-0.036
				c-0.182-0.026-0.356-0.067-0.524-0.129v-1.413c0.131,0.06,0.287,0.109,0.462,0.154c0.176,0.043,0.321,0.063,0.443,0.063
				c0.313,0,0.574-0.077,0.789-0.229c0.211-0.148,0.374-0.363,0.482-0.643l0.635-1.577l-3.721-9.319h1.74l2.743,7.67h0.03
				l2.633-7.67h1.632L211.187,382.575z"/>
		</g>
		<path fill="#212121" d="M171.215,371.907c0-0.187,0-0.376,0-0.561c0-0.021,0.01-0.038,0.01-0.054
			c0.023-0.446,0.102-0.886,0.258-1.309c0.303-0.851,0.859-1.491,1.662-1.917c0.604-0.317,1.252-0.445,1.923-0.479
			c0.069-0.008,0.135-0.013,0.202-0.017c0.068,0,0.145,0,0.217,0c0.01,0.004,0.021,0.009,0.037,0.009
			c0.462,0.018,0.905,0.144,1.331,0.32c0.512,0.218,0.962,0.536,1.397,0.873c0.275,0.213,0.529,0.45,0.797,0.678
			c0.006-0.003,0.022-0.011,0.033-0.025c0.426-0.428,0.907-0.787,1.41-1.123c0.535-0.352,1.11-0.597,1.748-0.695
			c0.122-0.017,0.241-0.023,0.356-0.036c0.076,0,0.146,0,0.222,0c0.026,0.004,0.06,0.009,0.09,0.009
			c0.559,0.018,1.103,0.1,1.629,0.307c0.935,0.361,1.611,1.003,2.001,1.934c0.202,0.49,0.291,1.001,0.324,1.525
			c0.05,0.729-0.092,1.419-0.4,2.081c-0.294,0.634-0.684,1.202-1.159,1.705c-0.503,0.527-1.024,1.03-1.543,1.535
			c-0.76,0.739-1.53,1.474-2.294,2.209c-0.62,0.596-1.233,1.19-1.849,1.786c-0.159,0.147-0.295,0.313-0.529,0.344
			c-0.033,0-0.073,0-0.109,0c-0.132-0.033-0.248-0.09-0.35-0.19c-0.486-0.474-0.98-0.947-1.463-1.415
			c-0.695-0.667-1.383-1.33-2.072-1.996c-0.427-0.41-0.855-0.823-1.283-1.236c-0.27-0.261-0.555-0.518-0.814-0.789
			c-0.36-0.367-0.671-0.771-0.956-1.2c-0.379-0.574-0.634-1.204-0.767-1.88C171.248,372.169,171.23,372.039,171.215,371.907z"/>
		<g>
			<path fill="#212121" d="M304.938,344.664v-0.891h6.374v0.891h-2.657v7.073h-1.06v-7.073H304.938z"/>
			<path fill="#212121" d="M314.222,343.773l2.515,6.691l2.519-6.691h1.453v7.964H319.7v-6.627h-0.02l-2.488,6.627h-0.904
				l-2.485-6.627h-0.026v6.627h-1.001v-7.964H314.222z"/>
		</g>
	</g>
</g>
</svg>
