%
M48
M72
T01C0.0197
T02C0.0236
T03C0.0315
T04C0.0400
T05C0.1102
T06C0.1181
T07C0.1260
%
T01
X13487Y16567
X16788Y16567
T02
X16922Y20229
X16528Y20229
X16134Y20229
X15741Y20229
X15347Y20229
X14953Y20229
X14559Y20229
X14166Y20229
X13772Y20229
X13378Y20229
X12985Y20229
X12591Y20229
X12197Y20229
X11804Y20229
X11410Y20229
X11016Y20229
X10622Y20229
X10229Y20229
X9835Y20229
X9441Y20229
X9048Y20229
X8654Y20229
X8260Y20229
X7867Y20229
X7473Y20229
X7079Y20229
X6685Y20229
X6292Y20229
X5898Y20229
X5504Y20229
X5111Y20229
X4717Y20229
X4323Y20229
X4323Y20701
X4717Y20701
X5111Y20701
X5504Y20701
X5898Y20701
X6292Y20701
X6685Y20701
X7079Y20701
X7473Y20701
X7867Y20701
X8260Y20701
X8654Y20701
X9048Y20701
X9441Y20701
X9835Y20701
X10229Y20701
X10622Y20701
X11016Y20701
X11410Y20701
X11804Y20701
X12197Y20701
X12591Y20701
X12985Y20701
X13378Y20701
X13772Y20701
X14166Y20701
X14559Y20701
X14953Y20701
X15347Y20701
X15741Y20701
X16134Y20701
X16528Y20701
X16922Y20701
X17315Y20701
X17709Y20701
X18103Y20701
X18496Y20701
X18890Y20701
X19284Y20701
X19678Y20701
X20071Y20701
X20465Y20701
X20859Y20701
X21252Y20701
X21646Y20701
X22040Y20701
X22433Y20701
X22827Y20701
X23221Y20701
X23615Y20701
X24008Y20701
X24402Y20701
X24796Y20701
X25189Y20701
X25583Y20701
X25977Y20701
X25977Y20229
X25583Y20229
X25189Y20229
X24796Y20229
X24402Y20229
X24008Y20229
X23615Y20229
X23221Y20229
X22827Y20229
X22433Y20229
X22040Y20229
X21646Y20229
X21252Y20229
X20859Y20229
X20465Y20229
X20071Y20229
X19678Y20229
X19284Y20229
X18890Y20229
X18496Y20229
X18103Y20229
X17709Y20229
X17315Y20229
X28654Y17670
X28654Y17276
X28654Y16882
X28654Y16489
X28654Y16095
X28654Y15701
X28654Y15307
X28654Y14914
X28654Y14520
X28654Y14126
X29126Y14126
X29126Y14520
X29126Y14914
X29126Y15307
X29126Y15701
X29126Y16095
X29126Y16489
X29126Y16882
X29126Y17276
X29126Y17670
X1646Y17670
X1646Y17276
X1646Y16882
X1646Y16489
X1646Y16095
X1646Y15701
X1646Y15307
X1646Y14914
X1646Y14520
X1646Y14126
X1646Y13733
X1646Y13339
X1646Y12945
X1174Y12945
X1174Y13339
X1174Y13733
X1174Y14126
X1174Y14520
X1174Y14914
X1174Y15307
X1174Y15701
X1174Y16095
X1174Y16489
X1174Y16882
X1174Y17276
X1174Y17670
T03
X13827Y10693
X14827Y10693
X14827Y9693
X13827Y9693
X13827Y8693
X14827Y8693
X14327Y6693
X15327Y6693
X16327Y6693
X17327Y6693
X18327Y6693
X19327Y6693
X20327Y6693
X21327Y6693
X22327Y6693
X23327Y6693
X24327Y6693
X25327Y6693
X26327Y6693
X27327Y6693
X28327Y6693
X28327Y12693
X27327Y12693
X26327Y12693
X25327Y12693
X24327Y12693
X23327Y12693
X22327Y12693
X21327Y12693
X20327Y12693
X19327Y12693
X18327Y12693
X17327Y12693
X16327Y12693
X15327Y12693
X14327Y12693
T04
X12197Y2437
X12197Y3437
X12197Y4437
X12197Y5437
X12197Y6437
X12197Y7437
X12197Y8437
X12197Y9437
T05
X25166Y5150
X26505Y3260
T06
X21705Y2414
X27945Y19520
X2355Y19520
T07
X24044Y3260
M30
