G75*
%MOIN*%
%OFA0B0*%
%FSLAX24Y24*%
%IPPOS*%
%LPD*%
%AMOC8*
5,1,8,0,0,1.08239X$1,22.5*
%
%ADD10C,0.0060*%
%ADD11C,0.0515*%
%ADD12C,0.0515*%
%ADD13C,0.1660*%
%ADD14C,0.1502*%
%ADD15OC8,0.0700*%
%ADD16C,0.0700*%
%ADD17R,0.0551X0.0709*%
%ADD18R,0.1024X0.1024*%
%ADD19R,0.0236X0.0591*%
%ADD20C,0.0100*%
D10*
X001695Y001086D02*
X001695Y001726D01*
X001268Y001726D01*
X001481Y001406D02*
X001695Y001406D01*
D11*
X014327Y006436D02*
X014327Y006951D01*
X015327Y006951D02*
X015327Y006436D01*
X016327Y006436D02*
X016327Y006951D01*
X017327Y006951D02*
X017327Y006436D01*
X018327Y006436D02*
X018327Y006951D01*
X019327Y006951D02*
X019327Y006436D01*
X020327Y006436D02*
X020327Y006951D01*
X021327Y006951D02*
X021327Y006436D01*
X022327Y006436D02*
X022327Y006951D01*
X023327Y006951D02*
X023327Y006436D01*
X024327Y006436D02*
X024327Y006951D01*
X025327Y006951D02*
X025327Y006436D01*
X026327Y006436D02*
X026327Y006951D01*
X027327Y006951D02*
X027327Y006436D01*
X028327Y006436D02*
X028327Y006951D01*
X028327Y012436D02*
X028327Y012951D01*
X027327Y012951D02*
X027327Y012436D01*
X026327Y012436D02*
X026327Y012951D01*
X025327Y012951D02*
X025327Y012436D01*
X024327Y012436D02*
X024327Y012951D01*
X023327Y012951D02*
X023327Y012436D01*
X022327Y012436D02*
X022327Y012951D01*
X021327Y012951D02*
X021327Y012436D01*
X020327Y012436D02*
X020327Y012951D01*
X019327Y012951D02*
X019327Y012436D01*
X018327Y012436D02*
X018327Y012951D01*
X017327Y012951D02*
X017327Y012436D01*
X016327Y012436D02*
X016327Y012951D01*
X015327Y012951D02*
X015327Y012436D01*
X014327Y012436D02*
X014327Y012951D01*
D12*
X013827Y010693D03*
X014827Y010693D03*
X014827Y009693D03*
X013827Y009693D03*
X013827Y008693D03*
X014827Y008693D03*
D13*
X024044Y003260D03*
D14*
X026505Y003260D03*
X025166Y005150D03*
D15*
X012197Y005437D03*
X012197Y004437D03*
X012197Y003437D03*
X012197Y002437D03*
X012197Y006437D03*
X012197Y007437D03*
X012197Y008437D03*
X012197Y009437D03*
D16*
X013487Y016567D03*
X016788Y016567D03*
D17*
X021016Y015741D03*
X022355Y015741D03*
X009048Y015701D03*
X007709Y015701D03*
D18*
X014225Y002158D03*
X019993Y002158D03*
D19*
X018831Y003201D03*
X018339Y003201D03*
X017847Y003201D03*
X017355Y003201D03*
X016863Y003201D03*
X016370Y003201D03*
X015878Y003201D03*
X015386Y003201D03*
D20*
X015347Y003201D01*
X015386Y003457D01*
X015386Y003654D01*
X017827Y006095D01*
X017827Y007512D01*
X017327Y008012D01*
X017327Y012693D01*
X016827Y013451D02*
X016728Y013551D01*
X016468Y013658D01*
X016186Y013658D01*
X015926Y013551D01*
X015727Y013352D01*
X015659Y013187D01*
X015638Y013216D01*
X015593Y013262D01*
X015541Y013299D01*
X015484Y013328D01*
X015423Y013348D01*
X015359Y013358D01*
X015356Y013358D01*
X015356Y012722D01*
X015298Y012722D01*
X015298Y013358D01*
X015295Y013358D01*
X015232Y013348D01*
X015171Y013328D01*
X015114Y013299D01*
X015062Y013262D01*
X015016Y013216D01*
X014995Y013187D01*
X014927Y013352D01*
X014886Y013392D01*
X014886Y015218D01*
X016290Y016622D01*
X016288Y016607D01*
X016288Y016567D01*
X016288Y016528D01*
X016300Y016450D01*
X016324Y016375D01*
X016360Y016305D01*
X016406Y016242D01*
X016462Y016186D01*
X016525Y016140D01*
X016596Y016104D01*
X016670Y016080D01*
X016748Y016067D01*
X016788Y016067D01*
X016827Y016067D01*
X016905Y016080D01*
X016979Y016104D01*
X017050Y016140D01*
X017113Y016186D01*
X017169Y016242D01*
X017215Y016305D01*
X017244Y016361D01*
X017386Y016218D01*
X017386Y013658D01*
X017186Y013658D01*
X016926Y013551D01*
X016827Y013451D01*
X016752Y013526D02*
X016902Y013526D01*
X017105Y013625D02*
X016549Y013625D01*
X016105Y013625D02*
X014886Y013625D01*
X014886Y013723D02*
X017386Y013723D01*
X017386Y013822D02*
X014886Y013822D01*
X014886Y013920D02*
X017386Y013920D01*
X017386Y014019D02*
X014886Y014019D01*
X014886Y014117D02*
X017386Y014117D01*
X017386Y014216D02*
X014886Y014216D01*
X014886Y014314D02*
X017386Y014314D01*
X017386Y014413D02*
X014886Y014413D01*
X014886Y014511D02*
X017386Y014511D01*
X017386Y014610D02*
X014886Y014610D01*
X014886Y014708D02*
X017386Y014708D01*
X017386Y014807D02*
X014886Y014807D01*
X014886Y014905D02*
X017386Y014905D01*
X017386Y015004D02*
X014886Y015004D01*
X014886Y015102D02*
X017386Y015102D01*
X017386Y015201D02*
X014886Y015201D01*
X014967Y015299D02*
X017386Y015299D01*
X017386Y015398D02*
X015065Y015398D01*
X015164Y015496D02*
X017386Y015496D01*
X017386Y015595D02*
X015262Y015595D01*
X015361Y015693D02*
X017386Y015693D01*
X017386Y015792D02*
X015459Y015792D01*
X015558Y015890D02*
X017386Y015890D01*
X017386Y015989D02*
X015656Y015989D01*
X015755Y016087D02*
X016647Y016087D01*
X016788Y016087D02*
X016788Y016087D01*
X016788Y016067D02*
X016788Y016567D01*
X016788Y016567D01*
X016788Y016067D01*
X016788Y016186D02*
X016788Y016186D01*
X016788Y016284D02*
X016788Y016284D01*
X016788Y016383D02*
X016788Y016383D01*
X016788Y016481D02*
X016788Y016481D01*
X016788Y016567D02*
X016288Y016567D01*
X016788Y016567D01*
X016386Y016426D01*
X015886Y015926D01*
X015386Y015926D01*
X015386Y012926D01*
X015327Y012693D01*
X015701Y012319D01*
X015701Y008930D01*
X017327Y007304D01*
X017327Y006693D01*
X017327Y006579D01*
X015071Y004323D01*
X014083Y004323D01*
X012197Y002437D01*
X012233Y002437D01*
X013457Y001213D01*
X015150Y001213D01*
X015859Y001922D01*
X015859Y003024D01*
X015878Y003201D01*
X015878Y002644D02*
X015997Y002524D01*
X016163Y002456D01*
X016578Y002456D01*
X016617Y002472D01*
X016655Y002456D01*
X017070Y002456D01*
X017109Y002472D01*
X017147Y002456D01*
X017562Y002456D01*
X017601Y002472D01*
X017639Y002456D01*
X018054Y002456D01*
X018093Y002472D01*
X018131Y002456D01*
X018547Y002456D01*
X018585Y002472D01*
X018623Y002456D01*
X019031Y002456D01*
X019031Y001557D01*
X019099Y001391D01*
X019226Y001265D01*
X019391Y001196D01*
X020594Y001196D01*
X020759Y001265D01*
X020886Y001391D01*
X020954Y001557D01*
X020954Y001693D01*
X021066Y001581D01*
X021303Y001444D01*
X021568Y001373D01*
X021842Y001373D01*
X022107Y001444D01*
X022344Y001581D01*
X022538Y001775D01*
X022675Y002012D01*
X022746Y002277D01*
X022746Y002551D01*
X022675Y002815D01*
X022538Y003053D01*
X022344Y003246D01*
X022107Y003383D01*
X021842Y003454D01*
X021568Y003454D01*
X021303Y003383D01*
X021066Y003246D01*
X020872Y003053D01*
X020830Y002980D01*
X020759Y003051D01*
X020594Y003120D01*
X019399Y003120D01*
X019399Y003586D01*
X019331Y003751D01*
X019204Y003878D01*
X019039Y003946D01*
X018623Y003946D01*
X018585Y003931D01*
X018550Y003945D01*
X020118Y005514D01*
X020259Y005654D01*
X020290Y005728D01*
X020468Y005728D01*
X020728Y005836D01*
X020827Y005935D01*
X020926Y005836D01*
X021186Y005728D01*
X021468Y005728D01*
X021728Y005836D01*
X021827Y005935D01*
X021926Y005836D01*
X022186Y005728D01*
X022327Y005728D01*
X022327Y004521D01*
X022326Y004425D01*
X022327Y004421D01*
X022327Y004417D01*
X022364Y004329D01*
X022399Y004240D01*
X022402Y004237D01*
X022403Y004233D01*
X022471Y004166D01*
X022858Y003766D01*
X022851Y003754D01*
X022764Y003429D01*
X022764Y003092D01*
X022851Y002766D01*
X023020Y002474D01*
X023258Y002236D01*
X023550Y002068D01*
X023876Y001980D01*
X024213Y001980D01*
X024538Y002068D01*
X024830Y002236D01*
X025068Y002474D01*
X025237Y002766D01*
X025324Y003092D01*
X025324Y003429D01*
X025237Y003754D01*
X025124Y003949D01*
X025324Y003949D01*
X025630Y004031D01*
X025904Y004189D01*
X026127Y004412D01*
X026285Y004686D01*
X026367Y004992D01*
X026367Y005308D01*
X026285Y005614D01*
X026219Y005728D01*
X026468Y005728D01*
X026728Y005836D01*
X026827Y005935D01*
X026926Y005836D01*
X027186Y005728D01*
X027468Y005728D01*
X027728Y005836D01*
X027827Y005935D01*
X027926Y005836D01*
X028186Y005728D01*
X028468Y005728D01*
X028728Y005836D01*
X028927Y006035D01*
X029035Y006295D01*
X029035Y007092D01*
X028927Y007352D01*
X028728Y007551D01*
X028468Y007658D01*
X028186Y007658D01*
X027926Y007551D01*
X027827Y007451D01*
X027728Y007551D01*
X027468Y007658D01*
X027186Y007658D01*
X026926Y007551D01*
X026827Y007451D01*
X026728Y007551D01*
X026468Y007658D01*
X026186Y007658D01*
X025926Y007551D01*
X025827Y007451D01*
X025728Y007551D01*
X025468Y007658D01*
X025296Y007658D01*
X025296Y011728D01*
X025468Y011728D01*
X025728Y011836D01*
X025827Y011935D01*
X025926Y011836D01*
X026186Y011728D01*
X026468Y011728D01*
X026728Y011836D01*
X026827Y011935D01*
X026926Y011836D01*
X027186Y011728D01*
X027468Y011728D01*
X027728Y011836D01*
X027827Y011935D01*
X027926Y011836D01*
X028186Y011728D01*
X028468Y011728D01*
X028728Y011836D01*
X028927Y012035D01*
X029035Y012295D01*
X029035Y013092D01*
X028927Y013352D01*
X028728Y013551D01*
X028709Y013558D01*
X028767Y013558D01*
X028890Y013609D01*
X029013Y013558D01*
X029239Y013558D01*
X029304Y013585D01*
X029304Y002394D01*
X029295Y002242D01*
X029228Y001945D01*
X029096Y001671D01*
X028906Y001433D01*
X028668Y001244D01*
X028394Y001112D01*
X028097Y001044D01*
X027945Y001036D01*
X002408Y001036D01*
X002408Y002007D01*
X002405Y002042D01*
X002400Y002077D01*
X002392Y002111D01*
X002381Y002145D01*
X002367Y002177D01*
X002351Y002209D01*
X002333Y002239D01*
X002312Y002268D01*
X002289Y002295D01*
X002264Y002320D01*
X002237Y002343D01*
X002208Y002363D01*
X002178Y002382D01*
X002147Y002398D01*
X002114Y002411D01*
X002080Y002422D01*
X002046Y002431D01*
X002011Y002436D01*
X001976Y002439D01*
X000996Y002439D01*
X000996Y012404D01*
X001061Y012377D01*
X001287Y012377D01*
X001410Y012428D01*
X001533Y012377D01*
X001759Y012377D01*
X001968Y012464D01*
X002128Y012623D01*
X002214Y012832D01*
X002214Y013058D01*
X002179Y013142D01*
X002214Y013226D01*
X002214Y013452D01*
X002179Y013536D01*
X002214Y013620D01*
X002214Y013846D01*
X002179Y013930D01*
X002214Y014013D01*
X002214Y014239D01*
X002179Y014323D01*
X002214Y014407D01*
X002214Y014633D01*
X002179Y014717D01*
X002214Y014801D01*
X002214Y015027D01*
X002179Y015111D01*
X002214Y015194D01*
X002214Y015420D01*
X002179Y015504D01*
X002214Y015588D01*
X002214Y015814D01*
X002179Y015898D01*
X002214Y015982D01*
X002214Y016208D01*
X002179Y016292D01*
X002214Y016376D01*
X002214Y016602D01*
X002179Y016685D01*
X002214Y016769D01*
X002214Y016995D01*
X002179Y017079D01*
X002214Y017163D01*
X002214Y017389D01*
X002179Y017473D01*
X002214Y017557D01*
X002214Y017783D01*
X002128Y017991D01*
X001968Y018151D01*
X001759Y018238D01*
X001533Y018238D01*
X001410Y018187D01*
X001287Y018238D01*
X001061Y018238D01*
X000996Y018211D01*
X000996Y019520D01*
X001005Y019672D01*
X001072Y019969D01*
X001204Y020243D01*
X001394Y020481D01*
X001632Y020670D01*
X001906Y020802D01*
X002203Y020870D01*
X002355Y020879D01*
X003782Y020879D01*
X003755Y020814D01*
X003755Y020588D01*
X003806Y020465D01*
X003755Y020342D01*
X003755Y020116D01*
X003842Y019907D01*
X004001Y019747D01*
X004210Y019661D01*
X004436Y019661D01*
X004520Y019695D01*
X004604Y019661D01*
X004830Y019661D01*
X004914Y019695D01*
X004998Y019661D01*
X005224Y019661D01*
X005307Y019695D01*
X005391Y019661D01*
X005617Y019661D01*
X005701Y019695D01*
X005785Y019661D01*
X006011Y019661D01*
X006095Y019695D01*
X006179Y019661D01*
X006405Y019661D01*
X006489Y019695D01*
X006572Y019661D01*
X006798Y019661D01*
X006882Y019695D01*
X006966Y019661D01*
X007192Y019661D01*
X007276Y019695D01*
X007360Y019661D01*
X007586Y019661D01*
X007670Y019695D01*
X007754Y019661D01*
X007980Y019661D01*
X008063Y019695D01*
X008147Y019661D01*
X008373Y019661D01*
X008457Y019695D01*
X008541Y019661D01*
X008767Y019661D01*
X008851Y019695D01*
X008935Y019661D01*
X009161Y019661D01*
X009244Y019695D01*
X009258Y019690D01*
X007285Y017717D01*
X007209Y017533D01*
X007209Y016450D01*
X007179Y016437D01*
X007052Y016310D01*
X006983Y016145D01*
X006983Y015257D01*
X007052Y015092D01*
X007179Y014965D01*
X007344Y014897D01*
X008074Y014897D01*
X008240Y014965D01*
X008366Y015092D01*
X008378Y015121D01*
X008391Y015092D01*
X008517Y014965D01*
X008683Y014897D01*
X009413Y014897D01*
X009578Y014965D01*
X009705Y015092D01*
X009773Y015257D01*
X009773Y016007D01*
X009833Y016067D01*
X012856Y016067D01*
X013034Y015889D01*
X013111Y015857D01*
X010103Y012849D01*
X009962Y012709D01*
X009886Y012525D01*
X009886Y005826D01*
X009962Y005642D01*
X010103Y005502D01*
X010287Y005426D01*
X011397Y005426D01*
X011397Y005106D01*
X011566Y004937D01*
X011397Y004769D01*
X011397Y004106D01*
X011566Y003937D01*
X011397Y003769D01*
X011397Y003106D01*
X011778Y002725D01*
X011697Y002645D01*
X011697Y002487D01*
X012147Y002487D01*
X012147Y002387D01*
X012247Y002387D01*
X012247Y001937D01*
X012404Y001937D01*
X012697Y002230D01*
X012697Y002387D01*
X012247Y002387D01*
X012247Y002487D01*
X012697Y002487D01*
X012697Y002645D01*
X012616Y002725D01*
X012997Y003106D01*
X012997Y003769D01*
X012829Y003937D01*
X012997Y004106D01*
X012997Y004769D01*
X012829Y004937D01*
X012997Y005106D01*
X012997Y005769D01*
X012967Y005799D01*
X013169Y006002D01*
X013310Y006142D01*
X013386Y006326D01*
X013386Y007525D01*
X013310Y007709D01*
X013169Y007849D01*
X012986Y007926D01*
X012840Y007926D01*
X012829Y007937D01*
X012997Y008106D01*
X012997Y008769D01*
X012829Y008937D01*
X012997Y009106D01*
X012997Y009769D01*
X012697Y010069D01*
X012697Y010356D01*
X013120Y010779D01*
X013120Y010553D01*
X013227Y010293D01*
X013327Y010193D01*
X013227Y010094D01*
X013120Y009834D01*
X013120Y009553D01*
X013227Y009293D01*
X013327Y009193D01*
X013227Y009094D01*
X013120Y008834D01*
X013120Y008553D01*
X013227Y008293D01*
X013426Y008094D01*
X013686Y007986D01*
X013968Y007986D01*
X014228Y008094D01*
X014327Y008193D01*
X014426Y008094D01*
X014686Y007986D01*
X014968Y007986D01*
X015228Y008094D01*
X015427Y008293D01*
X015535Y008553D01*
X015535Y008834D01*
X015427Y009094D01*
X015328Y009193D01*
X015427Y009293D01*
X015535Y009553D01*
X015535Y009834D01*
X015427Y010094D01*
X015328Y010193D01*
X015427Y010293D01*
X015535Y010553D01*
X015535Y010834D01*
X015427Y011094D01*
X015228Y011293D01*
X014968Y011401D01*
X014686Y011401D01*
X014426Y011293D01*
X014327Y011194D01*
X014228Y011293D01*
X013968Y011401D01*
X013742Y011401D01*
X014104Y011763D01*
X014186Y011728D01*
X014468Y011728D01*
X014728Y011836D01*
X014927Y012035D01*
X014995Y012200D01*
X015016Y012170D01*
X015062Y012125D01*
X015114Y012087D01*
X015171Y012058D01*
X015232Y012038D01*
X015295Y012028D01*
X015298Y012028D01*
X015298Y012665D01*
X015356Y012665D01*
X015356Y012028D01*
X015359Y012028D01*
X015423Y012038D01*
X015484Y012058D01*
X015541Y012087D01*
X015593Y012125D01*
X015638Y012170D01*
X015659Y012200D01*
X015727Y012035D01*
X015926Y011836D01*
X016186Y011728D01*
X016468Y011728D01*
X016728Y011836D01*
X016827Y011935D01*
X016827Y007913D01*
X016903Y007729D01*
X017277Y007355D01*
X017232Y007348D01*
X017171Y007328D01*
X017114Y007299D01*
X017062Y007262D01*
X017016Y007216D01*
X016995Y007187D01*
X016927Y007352D01*
X016728Y007551D01*
X016468Y007658D01*
X016186Y007658D01*
X015926Y007551D01*
X015827Y007451D01*
X015728Y007551D01*
X015468Y007658D01*
X015186Y007658D01*
X014926Y007551D01*
X014827Y007451D01*
X014728Y007551D01*
X014468Y007658D01*
X014186Y007658D01*
X013926Y007551D01*
X013727Y007352D01*
X013620Y007092D01*
X013620Y006295D01*
X013727Y006035D01*
X013926Y005836D01*
X014186Y005728D01*
X014468Y005728D01*
X014728Y005836D01*
X014827Y005935D01*
X014926Y005836D01*
X015186Y005728D01*
X015468Y005728D01*
X015728Y005836D01*
X015827Y005935D01*
X015926Y005836D01*
X016186Y005728D01*
X016468Y005728D01*
X016728Y005836D01*
X016927Y006035D01*
X016995Y006200D01*
X017016Y006170D01*
X017062Y006125D01*
X017113Y006088D01*
X015103Y004078D01*
X014962Y003937D01*
X014886Y003753D01*
X014886Y003750D01*
X014818Y003586D01*
X014818Y003120D01*
X013623Y003120D01*
X013458Y003051D01*
X013331Y002925D01*
X013263Y002759D01*
X013263Y001557D01*
X013331Y001391D01*
X013458Y001265D01*
X013623Y001196D01*
X014826Y001196D01*
X014992Y001265D01*
X015118Y001391D01*
X015187Y001557D01*
X015187Y002456D01*
X015594Y002456D01*
X015759Y002524D01*
X015878Y002644D01*
X015827Y002593D02*
X015929Y002593D01*
X016071Y002494D02*
X015686Y002494D01*
X015187Y002396D02*
X019031Y002396D01*
X019031Y002297D02*
X015187Y002297D01*
X015187Y002199D02*
X019031Y002199D01*
X019031Y002100D02*
X015187Y002100D01*
X015187Y002002D02*
X019031Y002002D01*
X019031Y001903D02*
X015187Y001903D01*
X015187Y001805D02*
X019031Y001805D01*
X019031Y001706D02*
X015187Y001706D01*
X015187Y001608D02*
X019031Y001608D01*
X019050Y001509D02*
X015167Y001509D01*
X015126Y001411D02*
X019091Y001411D01*
X019178Y001312D02*
X015039Y001312D01*
X014868Y001214D02*
X019349Y001214D01*
X020636Y001214D02*
X028605Y001214D01*
X028754Y001312D02*
X020807Y001312D01*
X020894Y001411D02*
X021429Y001411D01*
X021191Y001509D02*
X020935Y001509D01*
X020954Y001608D02*
X021040Y001608D01*
X021982Y001411D02*
X028877Y001411D01*
X028966Y001509D02*
X022219Y001509D01*
X022370Y001608D02*
X029045Y001608D01*
X029112Y001706D02*
X022469Y001706D01*
X022555Y001805D02*
X029160Y001805D01*
X029207Y001903D02*
X022612Y001903D01*
X022669Y002002D02*
X023796Y002002D01*
X023494Y002100D02*
X022698Y002100D01*
X022725Y002199D02*
X023323Y002199D01*
X023197Y002297D02*
X022746Y002297D01*
X022746Y002396D02*
X023099Y002396D01*
X023008Y002494D02*
X022746Y002494D01*
X022734Y002593D02*
X022952Y002593D01*
X022895Y002691D02*
X022708Y002691D01*
X022682Y002790D02*
X022845Y002790D01*
X022819Y002888D02*
X022633Y002888D01*
X022576Y002987D02*
X022792Y002987D01*
X022766Y003085D02*
X022505Y003085D01*
X022407Y003184D02*
X022764Y003184D01*
X022764Y003282D02*
X022282Y003282D01*
X022112Y003381D02*
X022764Y003381D01*
X022778Y003479D02*
X019399Y003479D01*
X019399Y003381D02*
X021299Y003381D01*
X021128Y003282D02*
X019399Y003282D01*
X019399Y003184D02*
X021003Y003184D01*
X020905Y003085D02*
X020677Y003085D01*
X020824Y002987D02*
X020834Y002987D01*
X019399Y003578D02*
X022804Y003578D01*
X022830Y003676D02*
X019362Y003676D01*
X019307Y003775D02*
X022850Y003775D01*
X022754Y003873D02*
X019209Y003873D01*
X018872Y004267D02*
X022388Y004267D01*
X022348Y004366D02*
X018970Y004366D01*
X019069Y004464D02*
X022326Y004464D01*
X022327Y004563D02*
X019167Y004563D01*
X019266Y004661D02*
X022327Y004661D01*
X022327Y004760D02*
X019364Y004760D01*
X019463Y004858D02*
X022327Y004858D01*
X022327Y004957D02*
X019561Y004957D01*
X019660Y005055D02*
X022327Y005055D01*
X022327Y005154D02*
X019758Y005154D01*
X019857Y005252D02*
X022327Y005252D01*
X022327Y005351D02*
X019955Y005351D01*
X020054Y005449D02*
X022327Y005449D01*
X022327Y005548D02*
X020152Y005548D01*
X020251Y005646D02*
X022327Y005646D01*
X022147Y005745D02*
X021507Y005745D01*
X021735Y005843D02*
X021919Y005843D01*
X021147Y005745D02*
X020507Y005745D01*
X020735Y005843D02*
X020919Y005843D01*
X019835Y005937D02*
X019835Y007670D01*
X019481Y008024D01*
X018654Y008024D01*
X018339Y007709D01*
X018339Y006705D01*
X018327Y006693D01*
X019327Y006693D02*
X016863Y004229D01*
X016863Y003201D01*
X017355Y003201D02*
X017355Y003457D01*
X019835Y005937D01*
X018773Y004169D02*
X022468Y004169D01*
X022563Y004070D02*
X018675Y004070D01*
X018576Y003972D02*
X022659Y003972D01*
X022827Y004517D02*
X022827Y007591D01*
X021922Y008496D01*
X018260Y008496D01*
X017886Y008870D01*
X017886Y016426D01*
X016886Y017426D01*
X016386Y017426D01*
X014386Y015426D01*
X014386Y012926D01*
X014327Y012693D01*
X012197Y010563D01*
X012197Y009437D01*
X012786Y009980D02*
X013180Y009980D01*
X013139Y009882D02*
X012884Y009882D01*
X012983Y009783D02*
X013120Y009783D01*
X013120Y009685D02*
X012997Y009685D01*
X012997Y009586D02*
X013120Y009586D01*
X013147Y009488D02*
X012997Y009488D01*
X012997Y009389D02*
X013187Y009389D01*
X013229Y009291D02*
X012997Y009291D01*
X012997Y009192D02*
X013325Y009192D01*
X013227Y009094D02*
X012985Y009094D01*
X012886Y008995D02*
X013186Y008995D01*
X013146Y008897D02*
X012869Y008897D01*
X012968Y008798D02*
X013120Y008798D01*
X013120Y008700D02*
X012997Y008700D01*
X012997Y008601D02*
X013120Y008601D01*
X013140Y008503D02*
X012997Y008503D01*
X012997Y008404D02*
X013181Y008404D01*
X013222Y008306D02*
X012997Y008306D01*
X012997Y008207D02*
X013313Y008207D01*
X013411Y008109D02*
X012997Y008109D01*
X012901Y008010D02*
X013628Y008010D01*
X013304Y007715D02*
X016918Y007715D01*
X016868Y007813D02*
X013206Y007813D01*
X013019Y007912D02*
X016828Y007912D01*
X016827Y008010D02*
X015027Y008010D01*
X015243Y008109D02*
X016827Y008109D01*
X016827Y008207D02*
X015341Y008207D01*
X015432Y008306D02*
X016827Y008306D01*
X016827Y008404D02*
X015473Y008404D01*
X015514Y008503D02*
X016827Y008503D01*
X016827Y008601D02*
X015535Y008601D01*
X015535Y008700D02*
X016827Y008700D01*
X016827Y008798D02*
X015535Y008798D01*
X015509Y008897D02*
X016827Y008897D01*
X016827Y008995D02*
X015468Y008995D01*
X015427Y009094D02*
X016827Y009094D01*
X016827Y009192D02*
X015329Y009192D01*
X015425Y009291D02*
X016827Y009291D01*
X016827Y009389D02*
X015467Y009389D01*
X015508Y009488D02*
X016827Y009488D01*
X016827Y009586D02*
X015535Y009586D01*
X015535Y009685D02*
X016827Y009685D01*
X016827Y009783D02*
X015535Y009783D01*
X015515Y009882D02*
X016827Y009882D01*
X016827Y009980D02*
X015474Y009980D01*
X015433Y010079D02*
X016827Y010079D01*
X016827Y010177D02*
X015344Y010177D01*
X015410Y010276D02*
X016827Y010276D01*
X016827Y010374D02*
X015461Y010374D01*
X015502Y010473D02*
X016827Y010473D01*
X016827Y010571D02*
X015535Y010571D01*
X015535Y010670D02*
X016827Y010670D01*
X016827Y010768D02*
X015535Y010768D01*
X015521Y010867D02*
X016827Y010867D01*
X016827Y010965D02*
X015480Y010965D01*
X015440Y011064D02*
X016827Y011064D01*
X016827Y011162D02*
X015359Y011162D01*
X015260Y011261D02*
X016827Y011261D01*
X016827Y011359D02*
X015068Y011359D01*
X014586Y011359D02*
X014068Y011359D01*
X014260Y011261D02*
X014394Y011261D01*
X014528Y011753D02*
X016127Y011753D01*
X015911Y011852D02*
X014743Y011852D01*
X014842Y011950D02*
X015812Y011950D01*
X015722Y012049D02*
X015454Y012049D01*
X015356Y012049D02*
X015298Y012049D01*
X015200Y012049D02*
X014933Y012049D01*
X014973Y012147D02*
X015040Y012147D01*
X015298Y012147D02*
X015356Y012147D01*
X015356Y012246D02*
X015298Y012246D01*
X015298Y012344D02*
X015356Y012344D01*
X015356Y012443D02*
X015298Y012443D01*
X015298Y012541D02*
X015356Y012541D01*
X015356Y012640D02*
X015298Y012640D01*
X015298Y012738D02*
X015356Y012738D01*
X015356Y012837D02*
X015298Y012837D01*
X015298Y012935D02*
X015356Y012935D01*
X015356Y013034D02*
X015298Y013034D01*
X015298Y013132D02*
X015356Y013132D01*
X015356Y013231D02*
X015298Y013231D01*
X015298Y013329D02*
X015356Y013329D01*
X015481Y013329D02*
X015718Y013329D01*
X015677Y013231D02*
X015624Y013231D01*
X015803Y013428D02*
X014886Y013428D01*
X014886Y013526D02*
X015902Y013526D01*
X015173Y013329D02*
X014936Y013329D01*
X014977Y013231D02*
X015031Y013231D01*
X015615Y012147D02*
X015681Y012147D01*
X016528Y011753D02*
X016827Y011753D01*
X016827Y011655D02*
X013996Y011655D01*
X014094Y011753D02*
X014127Y011753D01*
X013897Y011556D02*
X016827Y011556D01*
X016827Y011458D02*
X013799Y011458D01*
X013120Y010768D02*
X013109Y010768D01*
X013120Y010670D02*
X013011Y010670D01*
X012912Y010571D02*
X013120Y010571D01*
X013153Y010473D02*
X012814Y010473D01*
X012715Y010374D02*
X013194Y010374D01*
X013244Y010276D02*
X012697Y010276D01*
X012697Y010177D02*
X013310Y010177D01*
X013221Y010079D02*
X012697Y010079D01*
X014243Y008109D02*
X014411Y008109D01*
X014628Y008010D02*
X014027Y008010D01*
X014085Y007616D02*
X013349Y007616D01*
X013386Y007518D02*
X013893Y007518D01*
X013795Y007419D02*
X013386Y007419D01*
X013386Y007321D02*
X013715Y007321D01*
X013674Y007222D02*
X013386Y007222D01*
X013386Y007124D02*
X013633Y007124D01*
X013620Y007025D02*
X013386Y007025D01*
X013386Y006927D02*
X013620Y006927D01*
X013620Y006828D02*
X013386Y006828D01*
X013386Y006730D02*
X013620Y006730D01*
X013620Y006631D02*
X013386Y006631D01*
X013386Y006533D02*
X013620Y006533D01*
X013620Y006434D02*
X013386Y006434D01*
X013386Y006336D02*
X013620Y006336D01*
X013644Y006237D02*
X013349Y006237D01*
X013306Y006139D02*
X013685Y006139D01*
X013725Y006040D02*
X013208Y006040D01*
X013109Y005942D02*
X013821Y005942D01*
X013919Y005843D02*
X013011Y005843D01*
X012997Y005745D02*
X014147Y005745D01*
X014507Y005745D02*
X015147Y005745D01*
X014919Y005843D02*
X014735Y005843D01*
X015507Y005745D02*
X016147Y005745D01*
X015919Y005843D02*
X015735Y005843D01*
X016277Y005252D02*
X012997Y005252D01*
X012997Y005154D02*
X016179Y005154D01*
X016080Y005055D02*
X012946Y005055D01*
X012848Y004957D02*
X015982Y004957D01*
X015883Y004858D02*
X012908Y004858D01*
X012997Y004760D02*
X015785Y004760D01*
X015686Y004661D02*
X012997Y004661D01*
X012997Y004563D02*
X015588Y004563D01*
X015489Y004464D02*
X012997Y004464D01*
X012997Y004366D02*
X015391Y004366D01*
X015292Y004267D02*
X012997Y004267D01*
X012997Y004169D02*
X015194Y004169D01*
X015095Y004070D02*
X012961Y004070D01*
X012863Y003972D02*
X014997Y003972D01*
X014936Y003873D02*
X012893Y003873D01*
X012991Y003775D02*
X014895Y003775D01*
X014855Y003676D02*
X012997Y003676D01*
X012997Y003578D02*
X014818Y003578D01*
X014818Y003479D02*
X012997Y003479D01*
X012997Y003381D02*
X014818Y003381D01*
X014818Y003282D02*
X012997Y003282D01*
X012997Y003184D02*
X014818Y003184D01*
X013540Y003085D02*
X012976Y003085D01*
X012878Y002987D02*
X013394Y002987D01*
X013316Y002888D02*
X012779Y002888D01*
X012681Y002790D02*
X013276Y002790D01*
X013263Y002691D02*
X012651Y002691D01*
X012697Y002593D02*
X013263Y002593D01*
X013263Y002494D02*
X012697Y002494D01*
X012697Y002297D02*
X013263Y002297D01*
X013263Y002199D02*
X012666Y002199D01*
X012567Y002100D02*
X013263Y002100D01*
X013263Y002002D02*
X012469Y002002D01*
X012247Y002002D02*
X012147Y002002D01*
X012147Y001937D02*
X011990Y001937D01*
X011697Y002230D01*
X011697Y002387D01*
X012147Y002387D01*
X012147Y001937D01*
X012147Y002100D02*
X012247Y002100D01*
X012247Y002199D02*
X012147Y002199D01*
X012147Y002297D02*
X012247Y002297D01*
X012247Y002396D02*
X013263Y002396D01*
X013263Y001903D02*
X002408Y001903D01*
X002408Y001805D02*
X013263Y001805D01*
X013263Y001706D02*
X002408Y001706D01*
X002408Y001608D02*
X013263Y001608D01*
X013283Y001509D02*
X002408Y001509D01*
X002408Y001411D02*
X013323Y001411D01*
X013411Y001312D02*
X002408Y001312D01*
X002408Y001214D02*
X013581Y001214D01*
X011926Y002002D02*
X002408Y002002D01*
X002394Y002100D02*
X011827Y002100D01*
X011729Y002199D02*
X002356Y002199D01*
X002286Y002297D02*
X011697Y002297D01*
X011697Y002494D02*
X000996Y002494D01*
X000996Y002593D02*
X011697Y002593D01*
X011744Y002691D02*
X000996Y002691D01*
X000996Y002790D02*
X011714Y002790D01*
X011615Y002888D02*
X000996Y002888D01*
X000996Y002987D02*
X011517Y002987D01*
X011418Y003085D02*
X000996Y003085D01*
X000996Y003184D02*
X011397Y003184D01*
X011397Y003282D02*
X000996Y003282D01*
X000996Y003381D02*
X011397Y003381D01*
X011397Y003479D02*
X000996Y003479D01*
X000996Y003578D02*
X011397Y003578D01*
X011397Y003676D02*
X000996Y003676D01*
X000996Y003775D02*
X011403Y003775D01*
X011502Y003873D02*
X000996Y003873D01*
X000996Y003972D02*
X011532Y003972D01*
X011433Y004070D02*
X000996Y004070D01*
X000996Y004169D02*
X011397Y004169D01*
X011397Y004267D02*
X000996Y004267D01*
X000996Y004366D02*
X011397Y004366D01*
X011397Y004464D02*
X000996Y004464D01*
X000996Y004563D02*
X011397Y004563D01*
X011397Y004661D02*
X000996Y004661D01*
X000996Y004760D02*
X011397Y004760D01*
X011487Y004858D02*
X000996Y004858D01*
X000996Y004957D02*
X011547Y004957D01*
X011448Y005055D02*
X000996Y005055D01*
X000996Y005154D02*
X011397Y005154D01*
X011397Y005252D02*
X000996Y005252D01*
X000996Y005351D02*
X011397Y005351D01*
X012386Y005926D02*
X010386Y005926D01*
X010386Y012426D01*
X016386Y018426D01*
X019000Y018426D01*
X019481Y017945D01*
X019481Y014835D01*
X020622Y013693D01*
X024599Y013693D01*
X024796Y013496D01*
X024796Y006178D01*
X024504Y005926D01*
X023847Y005926D01*
X023347Y006386D01*
X023327Y006693D01*
X024327Y006693D02*
X024347Y006926D01*
X019347Y011926D01*
X018886Y011926D01*
X018886Y017926D01*
X016386Y017926D01*
X010886Y012426D01*
X010886Y006426D01*
X011886Y006426D01*
X012197Y006437D01*
X012386Y005926D02*
X012886Y006426D01*
X012886Y007426D01*
X012386Y007426D01*
X012197Y007437D01*
X012997Y005646D02*
X016671Y005646D01*
X016573Y005548D02*
X012997Y005548D01*
X012997Y005449D02*
X016474Y005449D01*
X016376Y005351D02*
X012997Y005351D01*
X010230Y005449D02*
X000996Y005449D01*
X000996Y005548D02*
X010057Y005548D01*
X009961Y005646D02*
X000996Y005646D01*
X000996Y005745D02*
X009920Y005745D01*
X009886Y005843D02*
X000996Y005843D01*
X000996Y005942D02*
X009886Y005942D01*
X009886Y006040D02*
X000996Y006040D01*
X000996Y006139D02*
X009886Y006139D01*
X009886Y006237D02*
X000996Y006237D01*
X000996Y006336D02*
X009886Y006336D01*
X009886Y006434D02*
X000996Y006434D01*
X000996Y006533D02*
X009886Y006533D01*
X009886Y006631D02*
X000996Y006631D01*
X000996Y006730D02*
X009886Y006730D01*
X009886Y006828D02*
X000996Y006828D01*
X000996Y006927D02*
X009886Y006927D01*
X009886Y007025D02*
X000996Y007025D01*
X000996Y007124D02*
X009886Y007124D01*
X009886Y007222D02*
X000996Y007222D01*
X000996Y007321D02*
X009886Y007321D01*
X009886Y007419D02*
X000996Y007419D01*
X000996Y007518D02*
X009886Y007518D01*
X009886Y007616D02*
X000996Y007616D01*
X000996Y007715D02*
X009886Y007715D01*
X009886Y007813D02*
X000996Y007813D01*
X000996Y007912D02*
X009886Y007912D01*
X009886Y008010D02*
X000996Y008010D01*
X000996Y008109D02*
X009886Y008109D01*
X009886Y008207D02*
X000996Y008207D01*
X000996Y008306D02*
X009886Y008306D01*
X009886Y008404D02*
X000996Y008404D01*
X000996Y008503D02*
X009886Y008503D01*
X009886Y008601D02*
X000996Y008601D01*
X000996Y008700D02*
X009886Y008700D01*
X009886Y008798D02*
X000996Y008798D01*
X000996Y008897D02*
X009886Y008897D01*
X009886Y008995D02*
X000996Y008995D01*
X000996Y009094D02*
X009886Y009094D01*
X009886Y009192D02*
X000996Y009192D01*
X000996Y009291D02*
X009886Y009291D01*
X009886Y009389D02*
X000996Y009389D01*
X000996Y009488D02*
X009886Y009488D01*
X009886Y009586D02*
X000996Y009586D01*
X000996Y009685D02*
X009886Y009685D01*
X009886Y009783D02*
X000996Y009783D01*
X000996Y009882D02*
X009886Y009882D01*
X009886Y009980D02*
X000996Y009980D01*
X000996Y010079D02*
X009886Y010079D01*
X009886Y010177D02*
X000996Y010177D01*
X000996Y010276D02*
X009886Y010276D01*
X009886Y010374D02*
X000996Y010374D01*
X000996Y010473D02*
X009886Y010473D01*
X009886Y010571D02*
X000996Y010571D01*
X000996Y010670D02*
X009886Y010670D01*
X009886Y010768D02*
X000996Y010768D01*
X000996Y010867D02*
X009886Y010867D01*
X009886Y010965D02*
X000996Y010965D01*
X000996Y011064D02*
X009886Y011064D01*
X009886Y011162D02*
X000996Y011162D01*
X000996Y011261D02*
X009886Y011261D01*
X009886Y011359D02*
X000996Y011359D01*
X000996Y011458D02*
X009886Y011458D01*
X009886Y011556D02*
X000996Y011556D01*
X000996Y011655D02*
X009886Y011655D01*
X009886Y011753D02*
X000996Y011753D01*
X000996Y011852D02*
X009886Y011852D01*
X009886Y011950D02*
X000996Y011950D01*
X000996Y012049D02*
X009886Y012049D01*
X009886Y012147D02*
X000996Y012147D01*
X000996Y012246D02*
X009886Y012246D01*
X009886Y012344D02*
X000996Y012344D01*
X001917Y012443D02*
X009886Y012443D01*
X009893Y012541D02*
X002045Y012541D01*
X002134Y012640D02*
X009934Y012640D01*
X009992Y012738D02*
X002175Y012738D01*
X002214Y012837D02*
X010090Y012837D01*
X010189Y012935D02*
X002214Y012935D01*
X002214Y013034D02*
X010287Y013034D01*
X010386Y013132D02*
X002184Y013132D01*
X002214Y013231D02*
X010484Y013231D01*
X010583Y013329D02*
X002214Y013329D01*
X002214Y013428D02*
X010681Y013428D01*
X010780Y013526D02*
X002183Y013526D01*
X002214Y013625D02*
X010878Y013625D01*
X010977Y013723D02*
X002214Y013723D01*
X002214Y013822D02*
X011075Y013822D01*
X011174Y013920D02*
X002183Y013920D01*
X002214Y014019D02*
X011272Y014019D01*
X011371Y014117D02*
X002214Y014117D01*
X002214Y014216D02*
X011469Y014216D01*
X011568Y014314D02*
X002183Y014314D01*
X002214Y014413D02*
X011666Y014413D01*
X011765Y014511D02*
X002214Y014511D01*
X002214Y014610D02*
X011863Y014610D01*
X011962Y014708D02*
X002183Y014708D01*
X002214Y014807D02*
X012060Y014807D01*
X012159Y014905D02*
X009433Y014905D01*
X009616Y015004D02*
X012257Y015004D01*
X012356Y015102D02*
X009709Y015102D01*
X009750Y015201D02*
X012454Y015201D01*
X012553Y015299D02*
X009773Y015299D01*
X009773Y015398D02*
X012651Y015398D01*
X012750Y015496D02*
X009773Y015496D01*
X009773Y015595D02*
X012848Y015595D01*
X012947Y015693D02*
X009773Y015693D01*
X009773Y015792D02*
X013045Y015792D01*
X013033Y015890D02*
X009773Y015890D01*
X009773Y015989D02*
X012935Y015989D01*
X013487Y016567D02*
X015692Y018890D01*
X021213Y018890D01*
X022355Y017748D01*
X022355Y015741D01*
X021213Y015792D02*
X021205Y015800D01*
X021016Y015741D02*
X021016Y015268D01*
X021843Y014441D01*
X024717Y014441D01*
X024717Y017433D01*
X022827Y019323D01*
X009599Y019323D01*
X007709Y017433D01*
X007709Y015701D01*
X006983Y015693D02*
X002214Y015693D01*
X002214Y015595D02*
X006983Y015595D01*
X006983Y015496D02*
X002183Y015496D01*
X002214Y015398D02*
X006983Y015398D01*
X006983Y015299D02*
X002214Y015299D01*
X002214Y015201D02*
X007007Y015201D01*
X007048Y015102D02*
X002183Y015102D01*
X002214Y015004D02*
X007140Y015004D01*
X007324Y014905D02*
X002214Y014905D01*
X002214Y015792D02*
X006983Y015792D01*
X006983Y015890D02*
X002183Y015890D01*
X002214Y015989D02*
X006983Y015989D01*
X006983Y016087D02*
X002214Y016087D01*
X002214Y016186D02*
X007000Y016186D01*
X007041Y016284D02*
X002183Y016284D01*
X002214Y016383D02*
X007124Y016383D01*
X007209Y016481D02*
X002214Y016481D01*
X002214Y016580D02*
X007209Y016580D01*
X007209Y016678D02*
X002182Y016678D01*
X002214Y016777D02*
X007209Y016777D01*
X007209Y016875D02*
X002214Y016875D01*
X002214Y016974D02*
X007209Y016974D01*
X007209Y017072D02*
X002182Y017072D01*
X002214Y017171D02*
X007209Y017171D01*
X007209Y017269D02*
X002214Y017269D01*
X002214Y017368D02*
X007209Y017368D01*
X007209Y017466D02*
X002182Y017466D01*
X002214Y017565D02*
X007222Y017565D01*
X007263Y017663D02*
X002214Y017663D01*
X002214Y017762D02*
X007330Y017762D01*
X007429Y017860D02*
X002182Y017860D01*
X002141Y017959D02*
X007527Y017959D01*
X007626Y018057D02*
X002062Y018057D01*
X001957Y018156D02*
X007724Y018156D01*
X007823Y018254D02*
X000996Y018254D01*
X000996Y018353D02*
X007921Y018353D01*
X008020Y018451D02*
X000996Y018451D01*
X000996Y018550D02*
X001956Y018550D01*
X001953Y018550D02*
X002218Y018480D01*
X002492Y018480D01*
X002756Y018550D01*
X002994Y018687D01*
X003187Y018881D01*
X003324Y019118D01*
X003395Y019383D01*
X003395Y019657D01*
X003324Y019922D01*
X003187Y020159D01*
X002994Y020353D01*
X002756Y020490D01*
X002492Y020561D01*
X002218Y020561D01*
X001953Y020490D01*
X001716Y020353D01*
X001522Y020159D01*
X001385Y019922D01*
X001314Y019657D01*
X001314Y019383D01*
X001385Y019118D01*
X001522Y018881D01*
X001716Y018687D01*
X001953Y018550D01*
X001784Y018648D02*
X000996Y018648D01*
X000996Y018747D02*
X001657Y018747D01*
X001558Y018845D02*
X000996Y018845D01*
X000996Y018944D02*
X001486Y018944D01*
X001429Y019042D02*
X000996Y019042D01*
X000996Y019141D02*
X001379Y019141D01*
X001353Y019239D02*
X000996Y019239D01*
X000996Y019338D02*
X001326Y019338D01*
X001314Y019436D02*
X000996Y019436D01*
X000997Y019535D02*
X001314Y019535D01*
X001314Y019633D02*
X001003Y019633D01*
X001018Y019732D02*
X001334Y019732D01*
X001361Y019830D02*
X001041Y019830D01*
X001063Y019929D02*
X001389Y019929D01*
X001446Y020027D02*
X001101Y020027D01*
X001148Y020126D02*
X001503Y020126D01*
X001587Y020224D02*
X001195Y020224D01*
X001268Y020323D02*
X001686Y020323D01*
X001834Y020421D02*
X001347Y020421D01*
X001443Y020520D02*
X002065Y020520D01*
X001728Y020717D02*
X003755Y020717D01*
X003756Y020815D02*
X001962Y020815D01*
X001566Y020618D02*
X003755Y020618D01*
X003784Y020520D02*
X002645Y020520D01*
X002875Y020421D02*
X003788Y020421D01*
X003755Y020323D02*
X003024Y020323D01*
X003122Y020224D02*
X003755Y020224D01*
X003755Y020126D02*
X003207Y020126D01*
X003263Y020027D02*
X003792Y020027D01*
X003833Y019929D02*
X003320Y019929D01*
X003349Y019830D02*
X003918Y019830D01*
X004039Y019732D02*
X003375Y019732D01*
X003395Y019633D02*
X009202Y019633D01*
X009103Y019535D02*
X003395Y019535D01*
X003395Y019436D02*
X009005Y019436D01*
X008906Y019338D02*
X003383Y019338D01*
X003357Y019239D02*
X008808Y019239D01*
X008709Y019141D02*
X003330Y019141D01*
X003280Y019042D02*
X008611Y019042D01*
X008512Y018944D02*
X003223Y018944D01*
X003151Y018845D02*
X008414Y018845D01*
X008315Y018747D02*
X003053Y018747D01*
X002926Y018648D02*
X008217Y018648D01*
X008118Y018550D02*
X002753Y018550D01*
X008094Y014905D02*
X008663Y014905D01*
X008479Y015004D02*
X008278Y015004D01*
X008370Y015102D02*
X008386Y015102D01*
X009048Y015701D02*
X009048Y015989D01*
X009626Y016567D01*
X013487Y016567D01*
X015853Y016186D02*
X016462Y016186D01*
X016375Y016284D02*
X015952Y016284D01*
X016050Y016383D02*
X016322Y016383D01*
X016295Y016481D02*
X016149Y016481D01*
X016247Y016580D02*
X016288Y016580D01*
X016788Y016567D02*
X016788Y016567D01*
X017200Y016284D02*
X017321Y016284D01*
X017386Y016186D02*
X017113Y016186D01*
X016928Y016087D02*
X017386Y016087D01*
X016827Y011935D02*
X016827Y011935D01*
X016827Y011852D02*
X016743Y011852D01*
X016570Y007616D02*
X017016Y007616D01*
X017115Y007518D02*
X016761Y007518D01*
X016859Y007419D02*
X017213Y007419D01*
X017155Y007321D02*
X016940Y007321D01*
X016981Y007222D02*
X017022Y007222D01*
X017298Y007222D02*
X017327Y007222D01*
X017327Y007305D02*
X017327Y006722D01*
X017298Y006722D01*
X017298Y007334D01*
X017327Y007305D01*
X017312Y007321D02*
X017298Y007321D01*
X017298Y007124D02*
X017327Y007124D01*
X017327Y007025D02*
X017298Y007025D01*
X017298Y006927D02*
X017327Y006927D01*
X017327Y006828D02*
X017298Y006828D01*
X017298Y006730D02*
X017327Y006730D01*
X017327Y006665D02*
X017327Y006302D01*
X017298Y006273D01*
X017298Y006665D01*
X017327Y006665D01*
X017327Y006631D02*
X017298Y006631D01*
X017298Y006533D02*
X017327Y006533D01*
X017327Y006434D02*
X017298Y006434D01*
X017298Y006336D02*
X017327Y006336D01*
X017048Y006139D02*
X016970Y006139D01*
X016929Y006040D02*
X017065Y006040D01*
X016967Y005942D02*
X016833Y005942D01*
X016868Y005843D02*
X016735Y005843D01*
X016770Y005745D02*
X016507Y005745D01*
X015893Y007518D02*
X015761Y007518D01*
X015570Y007616D02*
X016085Y007616D01*
X015085Y007616D02*
X014570Y007616D01*
X014761Y007518D02*
X014893Y007518D01*
X012147Y002396D02*
X002151Y002396D01*
X002408Y001115D02*
X028401Y001115D01*
X029240Y002002D02*
X024292Y002002D01*
X024595Y002100D02*
X029263Y002100D01*
X029285Y002199D02*
X024765Y002199D01*
X024891Y002297D02*
X029298Y002297D01*
X029304Y002396D02*
X026760Y002396D01*
X026795Y002405D02*
X026904Y002450D01*
X027006Y002509D01*
X027100Y002581D01*
X027184Y002665D01*
X027256Y002758D01*
X027315Y002861D01*
X027360Y002970D01*
X027390Y003084D01*
X027406Y003201D01*
X027406Y003210D01*
X026555Y003210D01*
X026555Y003310D01*
X027406Y003310D01*
X027406Y003319D01*
X027390Y003436D01*
X027360Y003551D01*
X027315Y003660D01*
X027256Y003762D01*
X027184Y003856D01*
X027100Y003939D01*
X027006Y004011D01*
X026904Y004070D01*
X026795Y004115D01*
X026681Y004146D01*
X026564Y004161D01*
X026555Y004161D01*
X026555Y003310D01*
X026455Y003310D01*
X026455Y003210D01*
X026555Y003210D01*
X026555Y002359D01*
X026564Y002359D01*
X026681Y002374D01*
X026795Y002405D01*
X026980Y002494D02*
X029304Y002494D01*
X029304Y002593D02*
X027112Y002593D01*
X027204Y002691D02*
X029304Y002691D01*
X029304Y002790D02*
X027274Y002790D01*
X027326Y002888D02*
X029304Y002888D01*
X029304Y002987D02*
X027364Y002987D01*
X027391Y003085D02*
X029304Y003085D01*
X029304Y003184D02*
X027404Y003184D01*
X027398Y003381D02*
X029304Y003381D01*
X029304Y003479D02*
X027379Y003479D01*
X027349Y003578D02*
X029304Y003578D01*
X029304Y003676D02*
X027305Y003676D01*
X027246Y003775D02*
X029304Y003775D01*
X029304Y003873D02*
X027166Y003873D01*
X027058Y003972D02*
X029304Y003972D01*
X029304Y004070D02*
X026904Y004070D01*
X026555Y004070D02*
X026455Y004070D01*
X026455Y004161D02*
X026446Y004161D01*
X026329Y004146D01*
X026214Y004115D01*
X026105Y004070D01*
X025698Y004070D01*
X025869Y004169D02*
X029304Y004169D01*
X029304Y004267D02*
X025982Y004267D01*
X026080Y004366D02*
X029304Y004366D01*
X029304Y004464D02*
X026157Y004464D01*
X026214Y004563D02*
X029304Y004563D01*
X029304Y004661D02*
X026271Y004661D01*
X026305Y004760D02*
X029304Y004760D01*
X029304Y004858D02*
X026331Y004858D01*
X026358Y004957D02*
X029304Y004957D01*
X029304Y005055D02*
X026367Y005055D01*
X026367Y005154D02*
X029304Y005154D01*
X029304Y005252D02*
X026367Y005252D01*
X026356Y005351D02*
X029304Y005351D01*
X029304Y005449D02*
X026330Y005449D01*
X026303Y005548D02*
X029304Y005548D01*
X029304Y005646D02*
X026267Y005646D01*
X026507Y005745D02*
X027147Y005745D01*
X026919Y005843D02*
X026735Y005843D01*
X027507Y005745D02*
X028147Y005745D01*
X027919Y005843D02*
X027735Y005843D01*
X028507Y005745D02*
X029304Y005745D01*
X029304Y005843D02*
X028735Y005843D01*
X028833Y005942D02*
X029304Y005942D01*
X029304Y006040D02*
X028929Y006040D01*
X028970Y006139D02*
X029304Y006139D01*
X029304Y006237D02*
X029011Y006237D01*
X029035Y006336D02*
X029304Y006336D01*
X029304Y006434D02*
X029035Y006434D01*
X029035Y006533D02*
X029304Y006533D01*
X029304Y006631D02*
X029035Y006631D01*
X029035Y006730D02*
X029304Y006730D01*
X029304Y006828D02*
X029035Y006828D01*
X029035Y006927D02*
X029304Y006927D01*
X029304Y007025D02*
X029035Y007025D01*
X029021Y007124D02*
X029304Y007124D01*
X029304Y007222D02*
X028981Y007222D01*
X028940Y007321D02*
X029304Y007321D01*
X029304Y007419D02*
X028859Y007419D01*
X028761Y007518D02*
X029304Y007518D01*
X029304Y007616D02*
X028570Y007616D01*
X028085Y007616D02*
X027570Y007616D01*
X027761Y007518D02*
X027893Y007518D01*
X027085Y007616D02*
X026570Y007616D01*
X026761Y007518D02*
X026893Y007518D01*
X026085Y007616D02*
X025570Y007616D01*
X025761Y007518D02*
X025893Y007518D01*
X025296Y007715D02*
X029304Y007715D01*
X029304Y007813D02*
X025296Y007813D01*
X025296Y007912D02*
X029304Y007912D01*
X029304Y008010D02*
X025296Y008010D01*
X025296Y008109D02*
X029304Y008109D01*
X029304Y008207D02*
X025296Y008207D01*
X025296Y008306D02*
X029304Y008306D01*
X029304Y008404D02*
X025296Y008404D01*
X025296Y008503D02*
X029304Y008503D01*
X029304Y008601D02*
X025296Y008601D01*
X025296Y008700D02*
X029304Y008700D01*
X029304Y008798D02*
X025296Y008798D01*
X025296Y008897D02*
X029304Y008897D01*
X029304Y008995D02*
X025296Y008995D01*
X025296Y009094D02*
X029304Y009094D01*
X029304Y009192D02*
X025296Y009192D01*
X025296Y009291D02*
X029304Y009291D01*
X029304Y009389D02*
X025296Y009389D01*
X025296Y009488D02*
X029304Y009488D01*
X029304Y009586D02*
X025296Y009586D01*
X025296Y009685D02*
X029304Y009685D01*
X029304Y009783D02*
X025296Y009783D01*
X025296Y009882D02*
X029304Y009882D01*
X029304Y009980D02*
X025296Y009980D01*
X025296Y010079D02*
X029304Y010079D01*
X029304Y010177D02*
X025296Y010177D01*
X025296Y010276D02*
X029304Y010276D01*
X029304Y010374D02*
X025296Y010374D01*
X025296Y010473D02*
X029304Y010473D01*
X029304Y010571D02*
X025296Y010571D01*
X025296Y010670D02*
X029304Y010670D01*
X029304Y010768D02*
X025296Y010768D01*
X025296Y010867D02*
X029304Y010867D01*
X029304Y010965D02*
X025296Y010965D01*
X025296Y011064D02*
X029304Y011064D01*
X029304Y011162D02*
X025296Y011162D01*
X025296Y011261D02*
X029304Y011261D01*
X029304Y011359D02*
X025296Y011359D01*
X025296Y011458D02*
X029304Y011458D01*
X029304Y011556D02*
X025296Y011556D01*
X025296Y011655D02*
X029304Y011655D01*
X029304Y011753D02*
X028528Y011753D01*
X028743Y011852D02*
X029304Y011852D01*
X029304Y011950D02*
X028842Y011950D01*
X028933Y012049D02*
X029304Y012049D01*
X029304Y012147D02*
X028973Y012147D01*
X029014Y012246D02*
X029304Y012246D01*
X029304Y012344D02*
X029035Y012344D01*
X029035Y012443D02*
X029304Y012443D01*
X029304Y012541D02*
X029035Y012541D01*
X029035Y012640D02*
X029304Y012640D01*
X029304Y012738D02*
X029035Y012738D01*
X029035Y012837D02*
X029304Y012837D01*
X029304Y012935D02*
X029035Y012935D01*
X029035Y013034D02*
X029304Y013034D01*
X029304Y013132D02*
X029018Y013132D01*
X028977Y013231D02*
X029304Y013231D01*
X029304Y013329D02*
X028936Y013329D01*
X028851Y013428D02*
X029304Y013428D01*
X029304Y013526D02*
X028752Y013526D01*
X027911Y011852D02*
X027743Y011852D01*
X027528Y011753D02*
X028127Y011753D01*
X027127Y011753D02*
X026528Y011753D01*
X026743Y011852D02*
X026911Y011852D01*
X026127Y011753D02*
X025528Y011753D01*
X025743Y011852D02*
X025911Y011852D01*
X025327Y012693D02*
X025327Y013870D01*
X024756Y014441D01*
X024717Y014441D01*
X022827Y004517D02*
X024044Y003260D01*
X025137Y002593D02*
X025898Y002593D01*
X025909Y002581D02*
X026003Y002509D01*
X026105Y002450D01*
X026214Y002405D01*
X026329Y002374D01*
X026446Y002359D01*
X026455Y002359D01*
X026455Y003210D01*
X025604Y003210D01*
X025604Y003201D01*
X025619Y003084D01*
X025650Y002970D01*
X025695Y002861D01*
X025754Y002758D01*
X025826Y002665D01*
X025909Y002581D01*
X026029Y002494D02*
X025080Y002494D01*
X024990Y002396D02*
X026250Y002396D01*
X026455Y002396D02*
X026555Y002396D01*
X026555Y002494D02*
X026455Y002494D01*
X026455Y002593D02*
X026555Y002593D01*
X026555Y002691D02*
X026455Y002691D01*
X026455Y002790D02*
X026555Y002790D01*
X026555Y002888D02*
X026455Y002888D01*
X026455Y002987D02*
X026555Y002987D01*
X026555Y003085D02*
X026455Y003085D01*
X026455Y003184D02*
X026555Y003184D01*
X026505Y003198D02*
X024559Y001252D01*
X016567Y001252D01*
X015878Y001941D01*
X015859Y001922D01*
X025193Y002691D02*
X025806Y002691D01*
X025736Y002790D02*
X025243Y002790D01*
X025269Y002888D02*
X025683Y002888D01*
X025645Y002987D02*
X025296Y002987D01*
X025322Y003085D02*
X025619Y003085D01*
X025606Y003184D02*
X025324Y003184D01*
X025324Y003282D02*
X026455Y003282D01*
X026455Y003310D02*
X025604Y003310D01*
X025604Y003319D01*
X025619Y003436D01*
X025650Y003551D01*
X025695Y003660D01*
X025754Y003762D01*
X025826Y003856D01*
X025909Y003939D01*
X026003Y004011D01*
X026105Y004070D01*
X025951Y003972D02*
X025409Y003972D01*
X025168Y003873D02*
X025843Y003873D01*
X025763Y003775D02*
X025225Y003775D01*
X025258Y003676D02*
X025704Y003676D01*
X025661Y003578D02*
X025284Y003578D01*
X025311Y003479D02*
X025630Y003479D01*
X025612Y003381D02*
X025324Y003381D01*
X026455Y003381D02*
X026555Y003381D01*
X026555Y003479D02*
X026455Y003479D01*
X026455Y003578D02*
X026555Y003578D01*
X026555Y003676D02*
X026455Y003676D01*
X026455Y003775D02*
X026555Y003775D01*
X026555Y003873D02*
X026455Y003873D01*
X026455Y003972D02*
X026555Y003972D01*
X026455Y004161D02*
X026455Y003310D01*
X026505Y003260D02*
X026505Y003198D01*
X026555Y003282D02*
X029304Y003282D01*
M02*
